<?xml version="1.0" encoding="utf-8"?>
<!-- Generator: Adobe Illustrator 19.2.1, SVG Export Plug-In . SVG Version: 6.00 Build 0)  -->
<!DOCTYPE svg PUBLIC "-//W3C//DTD SVG 1.1//EN" "http://www.w3.org/Graphics/SVG/1.1/DTD/svg11.dtd">
<svg version="1.1" id="label" xmlns="http://www.w3.org/2000/svg" xmlns:xlink="http://www.w3.org/1999/xlink" x="0px" y="0px"
	 width="118px" height="322px" viewBox="0 0 118 322" style="enable-background:new 0 0 118 322;" xml:space="preserve">
<style type="text/css">
	.st0{fill:#191919;}
	.st1{fill:#FFFFFF;}
	.st2{fill:#757575;}
	.st3{fill:#02B757;}
	.st4{fill:#FFE000;}
	.st5{fill:#F68802;}
	.st6{fill:#00A2FF;}
</style>
<g id="ltd-u-obc-13_1_">
	<g>
		<polygon class="st0" points="86,322 52,322 44,308 78,308 		"/>
		<g>
			<g>
				<path class="st1" d="M55.6,315c0-2.5,1.4-4,3.5-4c2,0,3.5,1.5,3.5,4s-1.4,4.1-3.5,4.1S55.6,317.6,55.6,315z M61.1,315
					c0-1.8-0.8-2.8-2-2.8s-2,1.1-2,2.8c0,1.8,0.8,2.9,2,2.9C60.3,317.9,61.1,316.8,61.1,315z"/>
				<path class="st1" d="M63.9,311.2h2.5c1.6,0,2.8,0.5,2.8,1.9c0,0.7-0.4,1.5-1.3,1.7l0,0c1.1,0.2,1.8,0.8,1.8,1.9
					c0,1.6-1.3,2.3-3,2.3H64v-7.8H63.9z M66.3,314.4c1.1,0,1.6-0.4,1.6-1.2c0-0.7-0.5-1-1.5-1h-1v2.2H66.3z M66.5,317.9
					c1.2,0,1.8-0.4,1.8-1.3c0-0.8-0.6-1.2-1.8-1.2h-1.2v2.5H66.5z"/>
				<path class="st1" d="M74.1,311c1,0,1.7,0.5,2.2,1l-0.8,0.9c-0.4-0.4-0.9-0.6-1.5-0.6c-1.3,0-2.2,1.1-2.2,2.8
					c0,1.8,0.9,2.9,2.2,2.9c0.7,0,1.2-0.3,1.7-0.8l0.8,0.9c-0.6,0.7-1.5,1.1-2.4,1.1c-2,0-3.6-1.4-3.6-4
					C70.5,312.5,72.1,311,74.1,311z"/>
			</g>
		</g>
	</g>
	<g>
		<polygon class="st2" points="118,322 88,322 80,308 110,308 		"/>
		<g>
			<g>
				<path class="st1" d="M91.9,317.9h1.7v-5h-1.4V312c0.8-0.1,1.3-0.3,1.8-0.6h1v6.5h1.5v1.1h-4.6V317.9z"/>
				<path class="st1" d="M98,317.2c0.5,0.5,1,0.8,1.8,0.8c0.8,0,1.4-0.4,1.4-1.2c0-0.8-0.5-1.3-2.2-1.3v-1c1.5,0,2-0.5,2-1.2
					c0-0.6-0.4-1-1.1-1c-0.6,0-1.1,0.3-1.5,0.7l-0.7-0.9c0.6-0.6,1.4-1,2.3-1c1.5,0,2.5,0.7,2.5,2c0,0.9-0.5,1.4-1.3,1.8v0
					c0.9,0.2,1.6,0.9,1.6,1.9c0,1.4-1.2,2.2-2.7,2.2c-1.2,0-2.1-0.5-2.6-1.1L98,317.2z"/>
				<path class="st1" d="M105.6,315.5h-2.1v-1h2.1v-2.3h1v2.3h2.1v1h-2.1v2.3h-1V315.5z"/>
			</g>
		</g>
	</g>
	<g>
		<polygon class="st3" points="32,322 0,322 0,308 24,308 		"/>
		<g>
			<g>
				<path class="st1" d="M4,311.2h1.4v6.7h3.2v1.2H4V311.2z"/>
				<path class="st1" d="M11.4,312.3H9.1v-1.2h5.9v1.2h-2.3v6.7h-1.4V312.3z"/>
				<path class="st1" d="M16.2,311.2h2.1c2.4,0,3.8,1.3,3.8,3.9c0,2.6-1.4,4-3.8,4h-2.2V311.2z M18.2,317.9c1.6,0,2.5-0.9,2.5-2.8
					c0-1.9-0.9-2.8-2.5-2.8h-0.6v5.6H18.2z"/>
			</g>
		</g>
	</g>
	<polygon class="st4" points="50,322 32,322 24,308 42,308 	"/>
	<g>
		<g>
			<path class="st0" d="M33.9,311.2h1.4v4.5c0,1.7,0.6,2.3,1.6,2.3c1,0,1.6-0.6,1.6-2.3v-4.5h1.3v4.4c0,2.6-1.2,3.6-3,3.6
				c-1.8,0-3-1-3-3.6V311.2z"/>
		</g>
	</g>
</g>
<g id="ltd-u-tbc-13_1_">
	<g>
		<polygon class="st5" points="86,308 52,308 44,294 78,294 		"/>
		<g>
			<g>
				<path class="st1" d="M57.6,298.3h-2.3v-1.2h5.9v1.2H59v6.7h-1.4V298.3z"/>
				<path class="st1" d="M62.4,297.2h2.5c1.6,0,2.8,0.5,2.8,1.9c0,0.7-0.4,1.5-1.3,1.7l0,0c1.1,0.2,1.8,0.8,1.8,1.9
					c0,1.6-1.3,2.3-3,2.3h-2.7v-7.8H62.4z M64.7,300.4c1.1,0,1.6-0.4,1.6-1.2c0-0.7-0.5-1-1.5-1h-1v2.2H64.7z M64.9,303.9
					c1.2,0,1.8-0.4,1.8-1.3c0-0.8-0.6-1.2-1.8-1.2h-1.2v2.5H64.9z"/>
				<path class="st1" d="M72.5,297c1,0,1.7,0.5,2.2,1l-0.8,0.9c-0.4-0.4-0.9-0.6-1.5-0.6c-1.3,0-2.2,1.1-2.2,2.8
					c0,1.8,0.9,2.9,2.2,2.9c0.7,0,1.2-0.3,1.7-0.8l0.8,0.9c-0.6,0.7-1.5,1.1-2.4,1.1c-2,0-3.6-1.4-3.6-4
					C68.9,298.5,70.5,297,72.5,297z"/>
			</g>
		</g>
	</g>
	<g>
		<polygon class="st2" points="118,308 88,308 80,294 110,294 		"/>
		<g>
			<g>
				<path class="st1" d="M91.9,303.9h1.7v-5h-1.4V298c0.8-0.1,1.3-0.3,1.8-0.6h1v6.5h1.5v1.1h-4.6V303.9z"/>
				<path class="st1" d="M98,303.2c0.5,0.5,1,0.8,1.8,0.8c0.8,0,1.4-0.4,1.4-1.2c0-0.8-0.5-1.3-2.2-1.3v-1c1.5,0,2-0.5,2-1.2
					c0-0.6-0.4-1-1.1-1c-0.6,0-1.1,0.3-1.5,0.7l-0.7-0.9c0.6-0.6,1.4-1,2.3-1c1.5,0,2.5,0.7,2.5,2c0,0.9-0.5,1.4-1.3,1.8v0
					c0.9,0.2,1.6,0.9,1.6,1.9c0,1.4-1.2,2.2-2.7,2.2c-1.2,0-2.1-0.5-2.6-1.1L98,303.2z"/>
				<path class="st1" d="M105.6,301.5h-2.1v-1h2.1v-2.3h1v2.3h2.1v1h-2.1v2.3h-1V301.5z"/>
			</g>
		</g>
	</g>
	<g>
		<polygon class="st3" points="32,308 0,308 0,294 24,294 		"/>
		<g>
			<g>
				<path class="st1" d="M4,297.2h1.4v6.7h3.2v1.2H4V297.2z"/>
				<path class="st1" d="M11.4,298.3H9.1v-1.2h5.9v1.2h-2.3v6.7h-1.4V298.3z"/>
				<path class="st1" d="M16.2,297.2h2.1c2.4,0,3.8,1.3,3.8,3.9c0,2.6-1.4,4-3.8,4h-2.2V297.2z M18.2,303.9c1.6,0,2.5-0.9,2.5-2.8
					c0-1.9-0.9-2.8-2.5-2.8h-0.6v5.6H18.2z"/>
			</g>
		</g>
	</g>
	<polygon class="st4" points="50,308 32,308 24,294 42,294 	"/>
	<g>
		<g>
			<path class="st0" d="M33.9,297.2h1.4v4.5c0,1.7,0.6,2.3,1.6,2.3c1,0,1.6-0.6,1.6-2.3v-4.5h1.3v4.4c0,2.6-1.2,3.6-3,3.6
				c-1.8,0-3-1-3-3.6V297.2z"/>
		</g>
	</g>
</g>
<g id="ltd-u-bc-13_1_">
	<g>
		<polygon class="st6" points="78,294 52,294 44,280 70,280 		"/>
		<g>
			<g>
				<path class="st1" d="M56,283.2h2.5c1.6,0,2.8,0.5,2.8,1.9c0,0.7-0.4,1.5-1.3,1.7l0,0c1.1,0.2,1.8,0.8,1.8,1.9
					c0,1.6-1.3,2.3-3,2.3H56V283.2z M58.4,286.4c1.1,0,1.6-0.4,1.6-1.2c0-0.7-0.5-1-1.5-1h-1v2.2H58.4z M58.5,289.9
					c1.2,0,1.8-0.4,1.8-1.3c0-0.8-0.6-1.2-1.8-1.2h-1.2v2.5H58.5z"/>
				<path class="st1" d="M66.2,283c1,0,1.7,0.5,2.2,1l-0.8,0.9c-0.4-0.4-0.9-0.6-1.5-0.6c-1.3,0-2.2,1.1-2.2,2.8
					c0,1.8,0.9,2.9,2.2,2.9c0.7,0,1.2-0.3,1.7-0.8l0.8,0.9c-0.6,0.7-1.5,1.1-2.4,1.1c-2,0-3.6-1.4-3.6-4
					C62.5,284.5,64.2,283,66.2,283z"/>
			</g>
		</g>
	</g>
	<g>
		<polygon class="st2" points="110,294 80,294 72,280 102,280 		"/>
		<g>
			<g>
				<path class="st1" d="M83.9,289.9h1.7v-5h-1.4V284c0.8-0.1,1.3-0.3,1.8-0.6h1v6.5h1.5v1.1h-4.6V289.9z"/>
				<path class="st1" d="M90,289.2c0.5,0.5,1,0.8,1.8,0.8c0.8,0,1.4-0.4,1.4-1.2c0-0.8-0.5-1.3-2.2-1.3v-1c1.5,0,2-0.5,2-1.2
					c0-0.6-0.4-1-1.1-1c-0.6,0-1.1,0.3-1.5,0.7l-0.7-0.9c0.6-0.6,1.4-1,2.3-1c1.5,0,2.5,0.7,2.5,2c0,0.9-0.5,1.4-1.3,1.8v0
					c0.9,0.2,1.6,0.9,1.6,1.9c0,1.4-1.2,2.2-2.7,2.2c-1.2,0-2.1-0.5-2.6-1.1L90,289.2z"/>
				<path class="st1" d="M97.6,287.5h-2.1v-1h2.1v-2.3h1v2.3h2.1v1h-2.1v2.3h-1V287.5z"/>
			</g>
		</g>
	</g>
	<g>
		<polygon class="st3" points="32,294 0,294 0,280 24,280 		"/>
		<g>
			<g>
				<path class="st1" d="M4,283.2h1.4v6.7h3.2v1.2H4V283.2z"/>
				<path class="st1" d="M11.4,284.3H9.1v-1.2h5.9v1.2h-2.3v6.7h-1.4V284.3z"/>
				<path class="st1" d="M16.2,283.2h2.1c2.4,0,3.8,1.3,3.8,3.9c0,2.6-1.4,4-3.8,4h-2.2V283.2z M18.2,289.9c1.6,0,2.5-0.9,2.5-2.8
					c0-1.9-0.9-2.8-2.5-2.8h-0.6v5.6H18.2z"/>
			</g>
		</g>
	</g>
	<polygon class="st4" points="50,294 32,294 24,280 42,280 	"/>
	<g>
		<g>
			<path class="st0" d="M33.9,283.2h1.4v4.5c0,1.7,0.6,2.3,1.6,2.3c1,0,1.6-0.6,1.6-2.3v-4.5h1.3v4.4c0,2.6-1.2,3.6-3,3.6
				c-1.8,0-3-1-3-3.6V283.2z"/>
		</g>
	</g>
</g>
<g id="ltd-u-13">
	<g>
		<polygon class="st2" points="82,280 52,280 44,266 74,266 		"/>
		<g>
			<g>
				<path class="st1" d="M55.9,275.9h1.7v-5h-1.4V270c0.8-0.1,1.3-0.3,1.8-0.6h1v6.5h1.5v1.1h-4.6V275.9z"/>
				<path class="st1" d="M62,275.2c0.5,0.5,1,0.8,1.8,0.8c0.8,0,1.4-0.4,1.4-1.2c0-0.8-0.5-1.3-2.2-1.3v-1c1.5,0,2-0.5,2-1.2
					c0-0.6-0.4-1-1.1-1c-0.6,0-1.1,0.3-1.5,0.7l-0.7-0.9c0.6-0.6,1.4-1,2.3-1c1.5,0,2.5,0.7,2.5,2c0,0.9-0.5,1.4-1.3,1.8v0
					c0.9,0.2,1.6,0.9,1.6,1.9c0,1.4-1.2,2.2-2.7,2.2c-1.2,0-2.1-0.5-2.6-1.1L62,275.2z"/>
				<path class="st1" d="M69.6,273.5h-2.1v-1h2.1v-2.3h1v2.3h2.1v1h-2.1v2.3h-1V273.5z"/>
			</g>
		</g>
	</g>
	<g>
		<polygon class="st3" points="32,280 0,280 0,266 24,266 		"/>
		<g>
			<g>
				<path class="st1" d="M4,269.2h1.4v6.7h3.2v1.2H4V269.2z"/>
				<path class="st1" d="M11.4,270.3H9.1v-1.2h5.9v1.2h-2.3v6.7h-1.4V270.3z"/>
				<path class="st1" d="M16.2,269.2h2.1c2.4,0,3.8,1.3,3.8,3.9c0,2.6-1.4,4-3.8,4h-2.2V269.2z M18.2,275.9c1.6,0,2.5-0.9,2.5-2.8
					c0-1.9-0.9-2.8-2.5-2.8h-0.6v5.6H18.2z"/>
			</g>
		</g>
	</g>
	<polygon class="st4" points="50,280 32,280 24,266 42,266 	"/>
	<g>
		<g>
			<path class="st0" d="M33.9,269.2h1.4v4.5c0,1.7,0.6,2.3,1.6,2.3c1,0,1.6-0.6,1.6-2.3v-4.5h1.3v4.4c0,2.6-1.2,3.6-3,3.6
				c-1.8,0-3-1-3-3.6V269.2z"/>
		</g>
	</g>
</g>
<g id="ltd-obc-13">
	<g>
		<polygon class="st0" points="68,266 34,266 26,252 60,252 		"/>
		<g>
			<g>
				<path class="st1" d="M37.6,259c0-2.5,1.4-4,3.5-4c2,0,3.5,1.5,3.5,4s-1.4,4.1-3.5,4.1S37.6,261.6,37.6,259z M43.1,259
					c0-1.8-0.8-2.8-2-2.8s-2,1.1-2,2.8c0,1.8,0.8,2.9,2,2.9S43.1,260.8,43.1,259z"/>
				<path class="st1" d="M45.9,255.2h2.5c1.6,0,2.8,0.5,2.8,1.9c0,0.7-0.4,1.5-1.3,1.7l0,0c1.1,0.2,1.8,0.8,1.8,1.9
					c0,1.6-1.3,2.3-3,2.3H46v-7.8H45.9z M48.3,258.4c1.1,0,1.6-0.4,1.6-1.2c0-0.7-0.5-1-1.5-1h-1v2.2H48.3z M48.5,261.9
					c1.2,0,1.8-0.4,1.8-1.3c0-0.8-0.6-1.2-1.8-1.2h-1.2v2.5H48.5z"/>
				<path class="st1" d="M56.1,255c1,0,1.7,0.5,2.2,1l-0.8,0.9c-0.4-0.4-0.9-0.6-1.5-0.6c-1.3,0-2.2,1.1-2.2,2.8
					c0,1.8,0.9,2.9,2.2,2.9c0.7,0,1.2-0.3,1.7-0.8l0.8,0.9c-0.6,0.7-1.5,1.1-2.4,1.1c-2,0-3.6-1.4-3.6-4
					C52.5,256.5,54.1,255,56.1,255z"/>
			</g>
		</g>
	</g>
	<g>
		<polygon class="st2" points="100,266 70,266 62,252 92,252 		"/>
		<g>
			<g>
				<path class="st1" d="M73.9,261.9h1.7v-5h-1.4V256c0.8-0.1,1.3-0.3,1.8-0.6h1v6.5h1.5v1.1h-4.6V261.9z"/>
				<path class="st1" d="M80,261.2c0.5,0.5,1,0.8,1.8,0.8c0.8,0,1.4-0.4,1.4-1.2c0-0.8-0.5-1.3-2.2-1.3v-1c1.5,0,2-0.5,2-1.2
					c0-0.6-0.4-1-1.1-1c-0.6,0-1.1,0.3-1.5,0.7l-0.7-0.9c0.6-0.6,1.4-1,2.3-1c1.5,0,2.5,0.7,2.5,2c0,0.9-0.5,1.4-1.3,1.8v0
					c0.9,0.2,1.6,0.9,1.6,1.9c0,1.4-1.2,2.2-2.7,2.2c-1.2,0-2.1-0.5-2.6-1.1L80,261.2z"/>
				<path class="st1" d="M87.6,259.5h-2.1v-1h2.1v-2.3h1v2.3h2.1v1h-2.1v2.3h-1V259.5z"/>
			</g>
		</g>
	</g>
	<g id="ltd_3_">
		<polygon class="st3" points="32,266 0,266 0,252 24,252 		"/>
		<g>
			<g>
				<path class="st1" d="M4,255.2h1.4v6.7h3.2v1.2H4V255.2z"/>
				<path class="st1" d="M11.4,256.3H9.1v-1.2h5.9v1.2h-2.3v6.7h-1.4V256.3z"/>
				<path class="st1" d="M16.2,255.2h2.1c2.4,0,3.8,1.3,3.8,3.9c0,2.6-1.4,4-3.8,4h-2.2V255.2z M18.2,261.9c1.6,0,2.5-0.9,2.5-2.8
					c0-1.9-0.9-2.8-2.5-2.8h-0.6v5.6H18.2z"/>
			</g>
		</g>
	</g>
</g>
<g id="ltd-tbc-13">
	<g>
		<polygon class="st5" points="68,252 34,252 26,238 60,238 		"/>
		<g>
			<g>
				<path class="st1" d="M39.6,242.3h-2.3v-1.2h5.9v1.2H41v6.7h-1.4V242.3z"/>
				<path class="st1" d="M44.4,241.2h2.5c1.6,0,2.8,0.5,2.8,1.9c0,0.7-0.4,1.5-1.3,1.7l0,0c1.1,0.2,1.8,0.8,1.8,1.9
					c0,1.6-1.3,2.3-3,2.3h-2.7v-7.8H44.4z M46.7,244.4c1.1,0,1.6-0.4,1.6-1.2c0-0.7-0.5-1-1.5-1h-1v2.2H46.7z M46.9,247.9
					c1.2,0,1.8-0.4,1.8-1.3c0-0.8-0.6-1.2-1.8-1.2h-1.2v2.5H46.9z"/>
				<path class="st1" d="M54.5,241c1,0,1.7,0.5,2.2,1l-0.7,0.9c-0.4-0.4-0.9-0.6-1.5-0.6c-1.3,0-2.2,1.1-2.2,2.8
					c0,1.8,0.9,2.9,2.2,2.9c0.7,0,1.2-0.3,1.7-0.8l0.8,0.9c-0.6,0.7-1.5,1.1-2.4,1.1c-2,0-3.6-1.4-3.6-4
					C50.9,242.5,52.5,241,54.5,241z"/>
			</g>
		</g>
	</g>
	<g>
		<polygon class="st2" points="100,252 70,252 62,238 92,238 		"/>
		<g>
			<g>
				<path class="st1" d="M73.9,247.9h1.7v-5h-1.4V242c0.8-0.1,1.3-0.3,1.8-0.6h1v6.5h1.5v1.1h-4.6V247.9z"/>
				<path class="st1" d="M80,247.2c0.5,0.5,1,0.8,1.8,0.8c0.8,0,1.4-0.4,1.4-1.2c0-0.8-0.5-1.3-2.2-1.3v-1c1.5,0,2-0.5,2-1.2
					c0-0.6-0.4-1-1.1-1c-0.6,0-1.1,0.3-1.5,0.7l-0.7-0.9c0.6-0.6,1.4-1,2.3-1c1.5,0,2.5,0.7,2.5,2c0,0.9-0.5,1.4-1.3,1.8v0
					c0.9,0.2,1.6,0.9,1.6,1.9c0,1.4-1.2,2.2-2.7,2.2c-1.2,0-2.1-0.5-2.6-1.1L80,247.2z"/>
				<path class="st1" d="M87.6,245.5h-2.1v-1h2.1v-2.3h1v2.3h2.1v1h-2.1v2.3h-1V245.5z"/>
			</g>
		</g>
	</g>
	<g id="ltd_2_">
		<polygon class="st3" points="32,252 0,252 0,238 24,238 		"/>
		<g>
			<g>
				<path class="st1" d="M4,241.2h1.4v6.7h3.2v1.2H4V241.2z"/>
				<path class="st1" d="M11.4,242.3H9.1v-1.2h5.9v1.2h-2.3v6.7h-1.4V242.3z"/>
				<path class="st1" d="M16.2,241.2h2.1c2.4,0,3.8,1.3,3.8,3.9c0,2.6-1.4,4-3.8,4h-2.2V241.2z M18.2,247.9c1.6,0,2.5-0.9,2.5-2.8
					c0-1.9-0.9-2.8-2.5-2.8h-0.6v5.6H18.2z"/>
			</g>
		</g>
	</g>
</g>
<g id="ltd-bc-13">
	<g>
		<polygon class="st6" points="60,238 34,238 26,224 52,224 		"/>
		<g>
			<g>
				<path class="st1" d="M38,227.2h2.5c1.6,0,2.8,0.5,2.8,1.9c0,0.7-0.4,1.5-1.3,1.7l0,0c1.1,0.2,1.8,0.8,1.8,1.9
					c0,1.6-1.3,2.3-3,2.3H38V227.2z M40.4,230.4c1.1,0,1.6-0.4,1.6-1.2c0-0.7-0.5-1-1.5-1h-1v2.2H40.4z M40.5,233.9
					c1.2,0,1.8-0.4,1.8-1.3c0-0.8-0.6-1.2-1.8-1.2h-1.2v2.5H40.5z"/>
				<path class="st1" d="M48.2,227c1,0,1.7,0.5,2.2,1l-0.8,0.9c-0.4-0.4-0.9-0.6-1.5-0.6c-1.3,0-2.2,1.1-2.2,2.8
					c0,1.8,0.9,2.9,2.2,2.9c0.7,0,1.2-0.3,1.7-0.8l0.8,0.9c-0.6,0.7-1.5,1.1-2.4,1.1c-2,0-3.6-1.4-3.6-4
					C44.5,228.5,46.2,227,48.2,227z"/>
			</g>
		</g>
	</g>
	<g>
		<polygon class="st2" points="92,238 62,238 54,224 84,224 		"/>
		<g>
			<g>
				<path class="st1" d="M65.9,233.9h1.7v-5h-1.4V228c0.8-0.1,1.3-0.3,1.8-0.6h1v6.5h1.5v1.1h-4.6V233.9z"/>
				<path class="st1" d="M72,233.2c0.5,0.5,1,0.8,1.8,0.8c0.8,0,1.4-0.4,1.4-1.2c0-0.8-0.5-1.3-2.2-1.3v-1c1.5,0,2-0.5,2-1.2
					c0-0.6-0.4-1-1.1-1c-0.6,0-1.1,0.3-1.5,0.7l-0.7-0.9c0.6-0.6,1.4-1,2.3-1c1.5,0,2.5,0.7,2.5,2c0,0.9-0.5,1.4-1.3,1.8v0
					c0.9,0.2,1.6,0.9,1.6,1.9c0,1.4-1.2,2.2-2.7,2.2c-1.2,0-2.1-0.5-2.6-1.1L72,233.2z"/>
				<path class="st1" d="M79.6,231.5h-2.1v-1h2.1v-2.3h1v2.3h2.1v1h-2.1v2.3h-1V231.5z"/>
			</g>
		</g>
	</g>
	<g id="ltd_1_">
		<polygon class="st3" points="32,238 0,238 0,224 24,224 		"/>
		<g>
			<g>
				<path class="st1" d="M4,227.2h1.4v6.7h3.2v1.2H4V227.2z"/>
				<path class="st1" d="M11.4,228.3H9.1v-1.2h5.9v1.2h-2.3v6.7h-1.4V228.3z"/>
				<path class="st1" d="M16.2,227.2h2.1c2.4,0,3.8,1.3,3.8,3.9c0,2.6-1.4,4-3.8,4h-2.2V227.2z M18.2,233.9c1.6,0,2.5-0.9,2.5-2.8
					c0-1.9-0.9-2.8-2.5-2.8h-0.6v5.6H18.2z"/>
			</g>
		</g>
	</g>
</g>
<g id="ltd-13">
	<g>
		<polygon class="st2" points="64,224 34,224 26,210 56,210 		"/>
		<g>
			<g>
				<path class="st1" d="M37.9,219.9h1.7v-5h-1.4V214c0.8-0.1,1.3-0.3,1.8-0.6h1v6.5h1.5v1.1h-4.6V219.9z"/>
				<path class="st1" d="M44,219.2c0.5,0.5,1,0.8,1.8,0.8c0.8,0,1.4-0.4,1.4-1.2c0-0.8-0.5-1.3-2.2-1.3v-1c1.5,0,2-0.5,2-1.2
					c0-0.6-0.4-1-1.1-1c-0.6,0-1.1,0.3-1.5,0.7l-0.7-0.9c0.6-0.6,1.4-1,2.3-1c1.5,0,2.5,0.7,2.5,2c0,0.9-0.5,1.4-1.3,1.8v0
					c0.9,0.2,1.6,0.9,1.6,1.9c0,1.4-1.2,2.2-2.7,2.2c-1.2,0-2.1-0.5-2.6-1.1L44,219.2z"/>
				<path class="st1" d="M51.6,217.5h-2.1v-1h2.1v-2.3h1v2.3h2.1v1h-2.1v2.3h-1V217.5z"/>
			</g>
		</g>
	</g>
	<g id="ltd">
		<polygon class="st3" points="32,224 0,224 0,210 24,210 		"/>
		<g>
			<g>
				<path class="st1" d="M4,213.2h1.4v6.7h3.2v1.2H4V213.2z"/>
				<path class="st1" d="M11.4,214.3H9.1v-1.2h5.9v1.2h-2.3v6.7h-1.4V214.3z"/>
				<path class="st1" d="M16.2,213.2h2.1c2.4,0,3.8,1.3,3.8,3.9c0,2.6-1.4,4-3.8,4h-2.2V213.2z M18.2,219.9c1.6,0,2.5-0.9,2.5-2.8
					c0-1.9-0.9-2.8-2.5-2.8h-0.6v5.6H18.2z"/>
			</g>
		</g>
	</g>
</g>
<g id="_x31_3_x2B_-obc">
	<g>
		<polygon class="st0" points="34,210 0,210 0,196 26,196 		"/>
		<g>
			<g>
				<path class="st1" d="M3.6,203c0-2.5,1.4-4,3.5-4c2,0,3.5,1.5,3.5,4c0,2.5-1.4,4.1-3.5,4.1C5,207.1,3.6,205.6,3.6,203z M9.1,203
					c0-1.8-0.8-2.8-2-2.8c-1.2,0-2,1.1-2,2.8c0,1.8,0.8,2.9,2,2.9C8.3,205.9,9.1,204.8,9.1,203z"/>
				<path class="st1" d="M11.9,199.2h2.5c1.6,0,2.8,0.5,2.8,1.9c0,0.7-0.4,1.5-1.3,1.7v0c1.1,0.2,1.8,0.8,1.8,1.9
					c0,1.6-1.3,2.3-3,2.3h-2.7V199.2z M14.3,202.4c1.1,0,1.6-0.4,1.6-1.2c0-0.7-0.5-1-1.5-1h-1v2.2H14.3z M14.5,205.9
					c1.2,0,1.8-0.4,1.8-1.3c0-0.8-0.6-1.2-1.8-1.2h-1.2v2.5H14.5z"/>
				<path class="st1" d="M22.1,199c1,0,1.7,0.5,2.2,1l-0.8,0.9c-0.4-0.4-0.9-0.6-1.5-0.6c-1.3,0-2.2,1.1-2.2,2.8
					c0,1.8,0.9,2.9,2.2,2.9c0.7,0,1.2-0.3,1.7-0.8l0.8,0.9c-0.6,0.7-1.5,1.1-2.4,1.1c-2,0-3.6-1.4-3.6-4
					C18.5,200.5,20.1,199,22.1,199z"/>
			</g>
		</g>
	</g>
	<g>
		<polygon class="st2" points="66,210 36,210 28,196 58,196 		"/>
		<g>
			<g>
				<path class="st1" d="M39.9,205.9h1.7v-5h-1.4V200c0.8-0.1,1.3-0.3,1.8-0.6h1v6.5h1.5v1.1h-4.6V205.9z"/>
				<path class="st1" d="M46,205.2c0.5,0.5,1,0.8,1.8,0.8c0.8,0,1.4-0.4,1.4-1.2c0-0.8-0.5-1.3-2.2-1.3v-1c1.5,0,2-0.5,2-1.2
					c0-0.6-0.4-1-1.1-1c-0.6,0-1.1,0.3-1.5,0.7l-0.7-0.9c0.6-0.6,1.4-1,2.3-1c1.5,0,2.5,0.7,2.5,2c0,0.9-0.5,1.4-1.3,1.8v0
					c0.9,0.2,1.6,0.9,1.6,1.9c0,1.4-1.2,2.2-2.7,2.2c-1.2,0-2.1-0.5-2.6-1.1L46,205.2z"/>
				<path class="st1" d="M53.6,203.5h-2.1v-1h2.1v-2.3h1v2.3h2.1v1h-2.1v2.3h-1V203.5z"/>
			</g>
		</g>
	</g>
</g>
<g id="_x31_3_x2B_-tbc">
	<g>
		<polygon class="st5" points="34,196 0,196 0,182 26,182 		"/>
		<g>
			<g>
				<path class="st1" d="M5.6,186.3H3.3v-1.2h5.9v1.2H7v6.7H5.6V186.3z"/>
				<path class="st1" d="M10.4,185.2h2.5c1.6,0,2.8,0.5,2.8,1.9c0,0.7-0.4,1.5-1.3,1.7v0c1.1,0.2,1.8,0.8,1.8,1.9
					c0,1.6-1.3,2.3-3,2.3h-2.7V185.2z M12.7,188.4c1.1,0,1.6-0.4,1.6-1.2c0-0.7-0.5-1-1.5-1h-1v2.2H12.7z M12.9,191.9
					c1.2,0,1.8-0.4,1.8-1.3c0-0.8-0.6-1.2-1.8-1.2h-1.2v2.5H12.9z"/>
				<path class="st1" d="M20.5,185c1,0,1.7,0.5,2.2,1l-0.8,0.9c-0.4-0.4-0.9-0.6-1.5-0.6c-1.3,0-2.2,1.1-2.2,2.8
					c0,1.8,0.9,2.9,2.2,2.9c0.7,0,1.2-0.3,1.7-0.8l0.8,0.9c-0.6,0.7-1.5,1.1-2.4,1.1c-2,0-3.6-1.4-3.6-4
					C16.9,186.5,18.5,185,20.5,185z"/>
			</g>
		</g>
	</g>
	<g>
		<polygon class="st2" points="66,196 36,196 28,182 58,182 		"/>
		<g>
			<g>
				<path class="st1" d="M39.9,191.9h1.7v-5h-1.4V186c0.8-0.1,1.3-0.3,1.8-0.6h1v6.5h1.5v1.1h-4.6V191.9z"/>
				<path class="st1" d="M46,191.2c0.5,0.5,1,0.8,1.8,0.8c0.8,0,1.4-0.4,1.4-1.2c0-0.8-0.5-1.3-2.2-1.3v-1c1.5,0,2-0.5,2-1.2
					c0-0.6-0.4-1-1.1-1c-0.6,0-1.1,0.3-1.5,0.7l-0.7-0.9c0.6-0.6,1.4-1,2.3-1c1.5,0,2.5,0.7,2.5,2c0,0.9-0.5,1.4-1.3,1.8v0
					c0.9,0.2,1.6,0.9,1.6,1.9c0,1.4-1.2,2.2-2.7,2.2c-1.2,0-2.1-0.5-2.6-1.1L46,191.2z"/>
				<path class="st1" d="M53.6,189.5h-2.1v-1h2.1v-2.3h1v2.3h2.1v1h-2.1v2.3h-1V189.5z"/>
			</g>
		</g>
	</g>
</g>
<g>
	<g>
		<polygon class="st6" points="26,182 0,182 0,168 18,168 		"/>
		<g>
			<g>
				<path class="st1" d="M4,171.2h2.5c1.6,0,2.8,0.5,2.8,1.9c0,0.7-0.4,1.5-1.3,1.7v0c1.1,0.2,1.8,0.8,1.8,1.9c0,1.6-1.3,2.3-3,2.3
					H4V171.2z M6.4,174.4c1.1,0,1.6-0.4,1.6-1.2c0-0.7-0.5-1-1.5-1h-1v2.2H6.4z M6.6,177.9c1.2,0,1.8-0.4,1.8-1.3
					c0-0.8-0.6-1.2-1.8-1.2H5.4v2.5H6.6z"/>
				<path class="st1" d="M14.2,171c1,0,1.7,0.5,2.2,1l-0.8,0.9c-0.4-0.4-0.9-0.6-1.5-0.6c-1.3,0-2.2,1.1-2.2,2.8
					c0,1.8,0.9,2.9,2.2,2.9c0.7,0,1.2-0.3,1.7-0.8l0.8,0.9c-0.6,0.7-1.5,1.1-2.4,1.1c-2,0-3.6-1.4-3.6-4
					C10.5,172.5,12.2,171,14.2,171z"/>
			</g>
		</g>
	</g>
	<g>
		<polygon class="st2" points="58,182 28,182 20,168 50,168 		"/>
		<g>
			<g>
				<path class="st1" d="M31.9,177.9h1.7v-5h-1.4V172c0.8-0.1,1.3-0.3,1.8-0.6h1v6.5h1.5v1.1h-4.6V177.9z"/>
				<path class="st1" d="M38,177.2c0.5,0.5,1,0.8,1.8,0.8c0.8,0,1.4-0.4,1.4-1.2c0-0.8-0.5-1.3-2.2-1.3v-1c1.5,0,2-0.5,2-1.2
					c0-0.6-0.4-1-1.1-1c-0.6,0-1.1,0.3-1.5,0.7l-0.7-0.9c0.6-0.6,1.4-1,2.3-1c1.5,0,2.5,0.7,2.5,2c0,0.9-0.5,1.4-1.3,1.8v0
					c0.9,0.2,1.6,0.9,1.6,1.9c0,1.4-1.2,2.2-2.7,2.2c-1.2,0-2.1-0.5-2.6-1.1L38,177.2z"/>
				<path class="st1" d="M45.6,175.5h-2.1v-1h2.1v-2.3h1v2.3h2.1v1h-2.1v2.3h-1V175.5z"/>
			</g>
		</g>
	</g>
</g>
<g id="_x31_3_x2B_">
	<polygon class="st2" points="30,168 0,168 0,154 22,154 	"/>
	<g>
		<g>
			<path class="st1" d="M3.9,163.9h1.7v-5H4.2V158c0.8-0.1,1.3-0.3,1.8-0.6h1v6.5h1.5v1.1H3.9V163.9z"/>
			<path class="st1" d="M10,163.2c0.5,0.5,1,0.8,1.8,0.8c0.8,0,1.4-0.4,1.4-1.2c0-0.8-0.5-1.3-2.2-1.3v-1c1.5,0,2-0.5,2-1.2
				c0-0.6-0.4-1-1.1-1c-0.6,0-1.1,0.3-1.5,0.7l-0.7-0.9c0.6-0.6,1.4-1,2.3-1c1.5,0,2.5,0.7,2.5,2c0,0.9-0.5,1.4-1.3,1.8v0
				c0.9,0.2,1.6,0.9,1.6,1.9c0,1.4-1.2,2.2-2.7,2.2c-1.2,0-2.1-0.5-2.6-1.1L10,163.2z"/>
			<path class="st1" d="M17.6,161.5h-2.1v-1h2.1v-2.3h1v2.3h2.1v1h-2.1v2.3h-1V161.5z"/>
		</g>
	</g>
</g>
<g id="unique-obc">
	<g>
		<polygon class="st0" points="106,154 72,154 64,140 98,140 		"/>
		<g>
			<g>
				<path class="st1" d="M75.6,147c0-2.5,1.4-4,3.5-4c2,0,3.5,1.5,3.5,4s-1.4,4.1-3.5,4.1S75.6,149.6,75.6,147z M81.1,147
					c0-1.8-0.8-2.8-2-2.8s-2,1.1-2,2.8c0,1.8,0.8,2.9,2,2.9C80.3,149.9,81.1,148.8,81.1,147z"/>
				<path class="st1" d="M83.9,143.2h2.5c1.6,0,2.8,0.5,2.8,1.9c0,0.7-0.4,1.5-1.3,1.7l0,0c1.1,0.2,1.8,0.8,1.8,1.9
					c0,1.6-1.3,2.3-3,2.3H84v-7.8H83.9z M86.3,146.4c1.1,0,1.6-0.4,1.6-1.2c0-0.7-0.5-1-1.5-1h-1v2.2H86.3z M86.5,149.9
					c1.2,0,1.8-0.4,1.8-1.3c0-0.8-0.6-1.2-1.8-1.2h-1.2v2.5H86.5z"/>
				<path class="st1" d="M94.1,143c1,0,1.7,0.5,2.2,1l-0.8,0.9c-0.4-0.4-0.9-0.6-1.5-0.6c-1.3,0-2.2,1.1-2.2,2.8
					c0,1.8,0.9,2.9,2.2,2.9c0.7,0,1.2-0.3,1.7-0.8l0.8,0.9c-0.6,0.7-1.5,1.1-2.4,1.1c-2,0-3.6-1.4-3.6-4
					C90.5,144.5,92.1,143,94.1,143z"/>
			</g>
		</g>
	</g>
	<g>
		<polygon class="st4" points="70,154 52,154 44,140 62,140 		"/>
		<polygon class="st3" points="52,154 0,154 0,140 44,140 		"/>
		<g>
			<g>
				<path class="st1" d="M4,143.2h1.4v6.7h3.2v1.2H4V143.2z"/>
				<path class="st1" d="M9.8,143.2h1.4v7.8H9.8V143.2z"/>
				<path class="st1" d="M13,143.2h1.5L16,147l0.5,1.5l0,0L17,147l1.4-3.9H20v7.8h-1.3v-3.6c0-0.7,0.1-1.8,0.2-2.5l0,0l-0.6,1.8
					l-1.4,3.6h-0.6l-1.4-3.6l-0.6-1.8l0,0c0.1,0.7,0.2,1.8,0.2,2.5v3.6H13V143.2z"/>
				<path class="st1" d="M21.8,143.2h1.4v7.8h-1.4V143.2z"/>
				<path class="st1" d="M26.6,144.3h-2.3v-1.2h5.9v1.2H28v6.7h-1.4V144.3z"/>
				<path class="st1" d="M31.4,143.2h4.7v1.2h-3.3v2h2.8v1.2h-2.8v2.3h3.4v1.2h-4.8L31.4,143.2z"/>
				<path class="st1" d="M37.6,143.2h2.1c2.4,0,3.8,1.3,3.8,3.9c0,2.6-1.4,4-3.8,4h-2.2v-7.9H37.6z M39.6,149.9
					c1.6,0,2.5-0.9,2.5-2.8c0-1.9-0.9-2.8-2.5-2.8H39v5.6H39.6z"/>
			</g>
		</g>
		<g>
			<g>
				<path class="st0" d="M53.9,143.2h1.4v4.5c0,1.7,0.6,2.3,1.6,2.3s1.6-0.6,1.6-2.3v-4.5h1.3v4.4c0,2.6-1.2,3.6-3,3.6s-3-1-3-3.6
					v-4.4H53.9z"/>
			</g>
		</g>
	</g>
</g>
<g id="unique-tbc">
	<g>
		<polygon class="st5" points="106,140 72,140 64,126 98,126 		"/>
		<g>
			<g>
				<path class="st1" d="M77.6,130.3h-2.3v-1.2h5.9v1.2H79v6.7h-1.4V130.3z"/>
				<path class="st1" d="M82.4,129.2h2.5c1.6,0,2.8,0.5,2.8,1.9c0,0.7-0.4,1.5-1.3,1.7l0,0c1.1,0.2,1.8,0.8,1.8,1.9
					c0,1.6-1.3,2.3-3,2.3h-2.7v-7.8H82.4z M84.7,132.4c1.1,0,1.6-0.4,1.6-1.2c0-0.7-0.5-1-1.5-1h-1v2.2H84.7z M84.9,135.9
					c1.2,0,1.8-0.4,1.8-1.3c0-0.8-0.6-1.2-1.8-1.2h-1.2v2.5H84.9z"/>
				<path class="st1" d="M92.5,129c1,0,1.7,0.5,2.2,1l-0.8,0.9c-0.4-0.4-0.9-0.6-1.5-0.6c-1.3,0-2.2,1.1-2.2,2.8
					c0,1.8,0.9,2.9,2.2,2.9c0.7,0,1.2-0.3,1.7-0.8l0.8,0.9c-0.6,0.7-1.5,1.1-2.4,1.1c-2,0-3.6-1.4-3.6-4
					C88.9,130.5,90.5,129,92.5,129z"/>
			</g>
		</g>
	</g>
	<g>
		<polygon class="st4" points="70,140 52,140 44,126 62,126 		"/>
		<polygon class="st3" points="52,140 0,140 0,126 44,126 		"/>
		<g>
			<g>
				<path class="st1" d="M4,129.2h1.4v6.7h3.2v1.2H4V129.2z"/>
				<path class="st1" d="M9.8,129.2h1.4v7.8H9.8V129.2z"/>
				<path class="st1" d="M13,129.2h1.5L16,133l0.5,1.5l0,0L17,133l1.4-3.9H20v7.8h-1.3v-3.6c0-0.7,0.1-1.8,0.2-2.5l0,0l-0.6,1.8
					l-1.4,3.6h-0.6l-1.4-3.6l-0.6-1.8l0,0c0.1,0.7,0.2,1.8,0.2,2.5v3.6H13V129.2z"/>
				<path class="st1" d="M21.8,129.2h1.4v7.8h-1.4V129.2z"/>
				<path class="st1" d="M26.6,130.3h-2.3v-1.2h5.9v1.2H28v6.7h-1.4V130.3z"/>
				<path class="st1" d="M31.4,129.2h4.7v1.2h-3.3v2h2.8v1.2h-2.8v2.3h3.4v1.2h-4.8L31.4,129.2z"/>
				<path class="st1" d="M37.6,129.2h2.1c2.4,0,3.8,1.3,3.8,3.9c0,2.6-1.4,4-3.8,4h-2.2v-7.9H37.6z M39.6,135.9
					c1.6,0,2.5-0.9,2.5-2.8c0-1.9-0.9-2.8-2.5-2.8H39v5.6H39.6z"/>
			</g>
		</g>
		<g>
			<g>
				<path class="st0" d="M53.9,129.2h1.4v4.5c0,1.7,0.6,2.3,1.6,2.3s1.6-0.6,1.6-2.3v-4.5h1.3v4.4c0,2.6-1.2,3.6-3,3.6s-3-1-3-3.6
					v-4.4H53.9z"/>
			</g>
		</g>
	</g>
</g>
<g id="unique-bc">
	<g>
		<polygon class="st6" points="98,126 72,126 64,112 90,112 		"/>
		<g>
			<g>
				<path class="st1" d="M76,115.2h2.5c1.6,0,2.8,0.5,2.8,1.9c0,0.7-0.4,1.5-1.3,1.7l0,0c1.1,0.2,1.8,0.8,1.8,1.9
					c0,1.6-1.3,2.3-3,2.3H76V115.2z M78.4,118.4c1.1,0,1.6-0.4,1.6-1.2c0-0.7-0.5-1-1.5-1h-1v2.2H78.4z M78.5,121.9
					c1.2,0,1.8-0.4,1.8-1.3c0-0.8-0.6-1.2-1.8-1.2h-1.2v2.5H78.5z"/>
				<path class="st1" d="M86.2,115c1,0,1.7,0.5,2.2,1l-0.8,0.9c-0.4-0.4-0.9-0.6-1.5-0.6c-1.3,0-2.2,1.1-2.2,2.8
					c0,1.8,0.9,2.9,2.2,2.9c0.7,0,1.2-0.3,1.7-0.8l0.8,0.9c-0.6,0.7-1.5,1.1-2.4,1.1c-2,0-3.6-1.4-3.6-4
					C82.5,116.5,84.2,115,86.2,115z"/>
			</g>
		</g>
	</g>
	<g>
		<polygon class="st4" points="70,126 52,126 44,112 62,112 		"/>
		<polygon class="st3" points="52,126 0,126 0,112 44,112 		"/>
		<g>
			<g>
				<path class="st1" d="M4,115.2h1.4v6.7h3.2v1.2H4V115.2z"/>
				<path class="st1" d="M9.8,115.2h1.4v7.8H9.8V115.2z"/>
				<path class="st1" d="M13,115.2h1.5L16,119l0.5,1.5l0,0L17,119l1.4-3.9H20v7.8h-1.3v-3.6c0-0.7,0.1-1.8,0.2-2.5l0,0l-0.6,1.8
					l-1.4,3.6h-0.6l-1.4-3.6l-0.6-1.8l0,0c0.1,0.7,0.2,1.8,0.2,2.5v3.6H13V115.2z"/>
				<path class="st1" d="M21.8,115.2h1.4v7.8h-1.4V115.2z"/>
				<path class="st1" d="M26.6,116.3h-2.3v-1.2h5.9v1.2H28v6.7h-1.4V116.3z"/>
				<path class="st1" d="M31.4,115.2h4.7v1.2h-3.3v2h2.8v1.2h-2.8v2.3h3.4v1.2h-4.8L31.4,115.2z"/>
				<path class="st1" d="M37.6,115.2h2.1c2.4,0,3.8,1.3,3.8,3.9s-1.4,4-3.8,4h-2.2v-7.9H37.6z M39.6,121.9c1.6,0,2.5-0.9,2.5-2.8
					s-0.9-2.8-2.5-2.8H39v5.6L39.6,121.9z"/>
			</g>
		</g>
		<g>
			<g>
				<path class="st0" d="M53.9,115.2h1.4v4.5c0,1.7,0.6,2.3,1.6,2.3s1.6-0.6,1.6-2.3v-4.5h1.3v4.4c0,2.6-1.2,3.6-3,3.6s-3-1-3-3.6
					v-4.4H53.9z"/>
			</g>
		</g>
	</g>
</g>
<g id="unique">
	<polygon class="st4" points="70,112 52,112 44,98 62,98 	"/>
	<polygon class="st3" points="52,112 0,112 0,98 44,98 	"/>
	<g>
		<g>
			<path class="st1" d="M4,101.2h1.4v6.7h3.2v1.2H4V101.2z"/>
			<path class="st1" d="M9.8,101.2h1.4v7.8H9.8V101.2z"/>
			<path class="st1" d="M13,101.2h1.5L16,105l0.5,1.5l0,0L17,105l1.4-3.9H20v7.8h-1.3v-3.6c0-0.7,0.1-1.8,0.2-2.5l0,0l-0.6,1.8
				l-1.4,3.6h-0.6l-1.4-3.6l-0.6-1.8l0,0c0.1,0.7,0.2,1.8,0.2,2.5v3.6H13V101.2z"/>
			<path class="st1" d="M21.8,101.2h1.4v7.8h-1.4V101.2z"/>
			<path class="st1" d="M26.6,102.3h-2.3v-1.2h5.9v1.2H28v6.7h-1.4V102.3z"/>
			<path class="st1" d="M31.4,101.2h4.7v1.2h-3.3v2h2.8v1.2h-2.8v2.3h3.4v1.2h-4.8L31.4,101.2z"/>
			<path class="st1" d="M37.6,101.2h2.1c2.4,0,3.8,1.3,3.8,3.9s-1.4,4-3.8,4h-2.2v-7.9H37.6z M39.6,107.9c1.6,0,2.5-0.9,2.5-2.8
				s-0.9-2.8-2.5-2.8H39v5.6L39.6,107.9z"/>
		</g>
	</g>
	<g>
		<g>
			<path class="st0" d="M53.9,101.2h1.4v4.5c0,1.7,0.6,2.3,1.6,2.3s1.6-0.6,1.6-2.3v-4.5h1.3v4.4c0,2.6-1.2,3.6-3,3.6s-3-1-3-3.6
				v-4.4H53.9z"/>
		</g>
	</g>
</g>
<g id="limited-obc">
	<g>
		<polygon class="st3" points="52,98 0,98 0,84 44,84 		"/>
		<g>
			<g>
				<path class="st1" d="M4,87.2h1.4v6.7h3.2V95H4V87.2z"/>
				<path class="st1" d="M9.8,87.2h1.4V95H9.8V87.2z"/>
				<path class="st1" d="M13,87.2h1.5L16,91l0.5,1.5l0,0L17,91l1.4-3.9H20V95h-1.3v-3.6c0-0.7,0.1-1.8,0.2-2.5l0,0l-0.6,1.8
					l-1.4,3.6h-0.6l-1.4-3.6l-0.6-1.8l0,0c0.1,0.7,0.2,1.8,0.2,2.5V95H13V87.2z"/>
				<path class="st1" d="M21.8,87.2h1.4V95h-1.4V87.2z"/>
				<path class="st1" d="M26.6,88.3h-2.3v-1.2h5.9v1.2H28V95h-1.4V88.3z"/>
				<path class="st1" d="M31.4,87.2h4.7v1.2h-3.3v2h2.8v1.2h-2.8v2.3h3.4V95h-4.8L31.4,87.2z"/>
				<path class="st1" d="M37.6,87.2h2.1c2.4,0,3.8,1.3,3.8,3.9s-1.4,4-3.8,4h-2.2v-7.9H37.6z M39.6,93.9c1.6,0,2.5-0.9,2.5-2.8
					s-0.9-2.8-2.5-2.8H39v5.6L39.6,93.9z"/>
			</g>
		</g>
	</g>
	<g>
		<polygon class="st0" points="88,98 54,98 46,84 80,84 		"/>
		<g>
			<g>
				<path class="st1" d="M57.6,91c0-2.5,1.4-4,3.5-4c2,0,3.5,1.5,3.5,4s-1.4,4.1-3.5,4.1S57.6,93.6,57.6,91z M63.1,91
					c0-1.8-0.8-2.8-2-2.8s-2,1.1-2,2.8c0,1.8,0.8,2.9,2,2.9S63.1,92.8,63.1,91z"/>
				<path class="st1" d="M65.9,87.2h2.5c1.6,0,2.8,0.5,2.8,1.9c0,0.7-0.4,1.5-1.3,1.7l0,0c1.1,0.2,1.8,0.8,1.8,1.9
					c0,1.6-1.3,2.3-3,2.3H66v-7.8H65.9z M68.3,90.4c1.1,0,1.6-0.4,1.6-1.2c0-0.7-0.5-1-1.5-1h-1v2.2H68.3z M68.5,93.9
					c1.2,0,1.8-0.4,1.8-1.3c0-0.8-0.6-1.2-1.8-1.2h-1.2v2.5H68.5z"/>
				<path class="st1" d="M76.1,87c1,0,1.7,0.5,2.2,1l-0.8,0.9c-0.4-0.4-0.9-0.6-1.5-0.6c-1.3,0-2.2,1.1-2.2,2.8
					c0,1.8,0.9,2.9,2.2,2.9c0.7,0,1.2-0.3,1.7-0.8l0.8,0.9c-0.6,0.7-1.5,1.1-2.4,1.1c-2,0-3.6-1.4-3.6-4C72.5,88.5,74.1,87,76.1,87z
					"/>
			</g>
		</g>
	</g>
</g>
<g id="limited-tbc">
	<g>
		<polygon class="st3" points="52,84 0,84 0,70 44,70 		"/>
		<g>
			<g>
				<path class="st1" d="M4,73.2h1.4v6.7h3.2V81H4V73.2z"/>
				<path class="st1" d="M9.8,73.2h1.4V81H9.8V73.2z"/>
				<path class="st1" d="M13,73.2h1.5L16,77l0.5,1.5l0,0L17,77l1.4-3.9H20V81h-1.3v-3.6c0-0.7,0.1-1.8,0.2-2.5l0,0l-0.6,1.8
					l-1.4,3.6h-0.6l-1.4-3.6l-0.6-1.8l0,0c0.1,0.7,0.2,1.8,0.2,2.5V81H13V73.2z"/>
				<path class="st1" d="M21.8,73.2h1.4V81h-1.4V73.2z"/>
				<path class="st1" d="M26.6,74.3h-2.3v-1.2h5.9v1.2H28V81h-1.4V74.3z"/>
				<path class="st1" d="M31.4,73.2h4.7v1.2h-3.3v2h2.8v1.2h-2.8v2.3h3.4V81h-4.8L31.4,73.2z"/>
				<path class="st1" d="M37.6,73.2h2.1c2.4,0,3.8,1.3,3.8,3.9s-1.4,4-3.8,4h-2.2v-7.9H37.6z M39.6,79.9c1.6,0,2.5-0.9,2.5-2.8
					s-0.9-2.8-2.5-2.8H39v5.6L39.6,79.9z"/>
			</g>
		</g>
	</g>
	<g>
		<polygon class="st5" points="88,84 54,84 46,70 80,70 		"/>
		<g>
			<g>
				<path class="st1" d="M59.6,74.3h-2.3v-1.2h5.9v1.2H61V81h-1.4V74.3z"/>
				<path class="st1" d="M64.4,73.2h2.5c1.6,0,2.8,0.5,2.8,1.9c0,0.7-0.4,1.5-1.3,1.7l0,0c1.1,0.2,1.8,0.8,1.8,1.9
					c0,1.6-1.3,2.3-3,2.3h-2.7v-7.8H64.4z M66.7,76.4c1.1,0,1.6-0.4,1.6-1.2c0-0.7-0.5-1-1.5-1h-1v2.2H66.7z M66.9,79.9
					c1.2,0,1.8-0.4,1.8-1.3c0-0.8-0.6-1.2-1.8-1.2h-1.2v2.5H66.9z"/>
				<path class="st1" d="M74.5,73c1,0,1.7,0.5,2.2,1L76,74.9c-0.4-0.4-0.9-0.6-1.5-0.6c-1.3,0-2.2,1.1-2.2,2.8
					c0,1.8,0.9,2.9,2.2,2.9c0.7,0,1.2-0.3,1.7-0.8l0.8,0.9c-0.6,0.7-1.5,1.1-2.4,1.1c-2,0-3.6-1.4-3.6-4C70.9,74.5,72.5,73,74.5,73z
					"/>
			</g>
		</g>
	</g>
</g>
<g id="limited-bc">
	<g>
		<polygon class="st3" points="52,70 0,70 0,56 44,56 		"/>
		<g>
			<g>
				<path class="st1" d="M4,59.2h1.4v6.7h3.2V67H4V59.2z"/>
				<path class="st1" d="M9.8,59.2h1.4V67H9.8V59.2z"/>
				<path class="st1" d="M13,59.2h1.5L16,63l0.5,1.5l0,0L17,63l1.4-3.9H20V67h-1.3v-3.6c0-0.7,0.1-1.8,0.2-2.5l0,0l-0.6,1.8
					l-1.4,3.6h-0.6l-1.4-3.6l-0.6-1.8l0,0c0.1,0.7,0.2,1.8,0.2,2.5V67H13V59.2z"/>
				<path class="st1" d="M21.8,59.2h1.4V67h-1.4V59.2z"/>
				<path class="st1" d="M26.6,60.3h-2.3v-1.2h5.9v1.2H28V67h-1.4V60.3z"/>
				<path class="st1" d="M31.4,59.2h4.7v1.2h-3.3v2h2.8v1.2h-2.8v2.3h3.4V67h-4.8L31.4,59.2z"/>
				<path class="st1" d="M37.6,59.2h2.1c2.4,0,3.8,1.3,3.8,3.9s-1.4,4-3.8,4h-2.2v-7.9H37.6z M39.6,65.9c1.6,0,2.5-0.9,2.5-2.8
					c0-1.9-0.9-2.8-2.5-2.8H39v5.6H39.6z"/>
			</g>
		</g>
	</g>
	<g>
		<polygon class="st6" points="80,70 54,70 46,56 72,56 		"/>
		<g>
			<g>
				<path class="st1" d="M58,59.2h2.5c1.6,0,2.8,0.5,2.8,1.9c0,0.7-0.4,1.5-1.3,1.7l0,0c1.1,0.2,1.8,0.8,1.8,1.9
					c0,1.6-1.3,2.3-3,2.3H58V59.2z M60.4,62.4c1.1,0,1.6-0.4,1.6-1.2c0-0.7-0.5-1-1.5-1h-1v2.2H60.4z M60.5,65.9
					c1.2,0,1.8-0.4,1.8-1.3c0-0.8-0.6-1.2-1.8-1.2h-1.2v2.5L60.5,65.9z"/>
				<path class="st1" d="M68.2,59c1,0,1.7,0.5,2.2,1l-0.8,0.9c-0.4-0.4-0.9-0.6-1.5-0.6c-1.3,0-2.2,1.1-2.2,2.8
					c0,1.8,0.9,2.9,2.2,2.9c0.7,0,1.2-0.3,1.7-0.8l0.8,0.9c-0.6,0.7-1.5,1.1-2.4,1.1c-2,0-3.6-1.4-3.6-4C64.5,60.5,66.2,59,68.2,59z
					"/>
			</g>
		</g>
	</g>
</g>
<g id="limited">
	<polygon class="st3" points="52,56 0,56 0,42 44,42 	"/>
	<g>
		<g>
			<path class="st1" d="M4,45.2h1.4v6.7h3.2V53H4V45.2z"/>
			<path class="st1" d="M9.8,45.2h1.4V53H9.8V45.2z"/>
			<path class="st1" d="M13,45.2h1.5L16,49l0.5,1.5l0,0L17,49l1.4-3.9H20V53h-1.3v-3.6c0-0.7,0.1-1.8,0.2-2.5l0,0l-0.6,1.8l-1.4,3.6
				h-0.6l-1.4-3.6l-0.6-1.8l0,0c0.1,0.7,0.2,1.8,0.2,2.5V53H13V45.2z"/>
			<path class="st1" d="M21.8,45.2h1.4V53h-1.4V45.2z"/>
			<path class="st1" d="M26.6,46.3h-2.3v-1.2h5.9v1.2H28V53h-1.4V46.3z"/>
			<path class="st1" d="M31.4,45.2h4.7v1.2h-3.3v2h2.8v1.2h-2.8v2.3h3.4V53h-4.8L31.4,45.2z"/>
			<path class="st1" d="M37.6,45.2h2.1c2.4,0,3.8,1.3,3.8,3.9c0,2.6-1.4,4-3.8,4h-2.2v-7.9H37.6z M39.6,51.9c1.6,0,2.5-0.9,2.5-2.8
				c0-1.9-0.9-2.8-2.5-2.8H39v5.6H39.6z"/>
		</g>
	</g>
</g>
<g id="obc">
	<polygon class="st0" points="34,42 0,42 0,28 26,28 	"/>
	<g>
		<g>
			<path class="st1" d="M3.6,35c0-2.5,1.4-4,3.5-4c2,0,3.5,1.5,3.5,4s-1.4,4.1-3.5,4.1S3.6,37.6,3.6,35z M9.1,35
				c0-1.8-0.8-2.8-2-2.8s-2,1.1-2,2.8c0,1.8,0.8,2.9,2,2.9S9.1,36.8,9.1,35z"/>
			<path class="st1" d="M11.9,31.2h2.5c1.6,0,2.8,0.5,2.8,1.9c0,0.7-0.4,1.5-1.3,1.7l0,0c1.1,0.2,1.8,0.8,1.8,1.9
				c0,1.6-1.3,2.3-3,2.3H12L11.9,31.2L11.9,31.2z M14.3,34.4c1.1,0,1.6-0.4,1.6-1.2c0-0.7-0.5-1-1.5-1h-1v2.2H14.3z M14.5,37.9
				c1.2,0,1.8-0.4,1.8-1.3c0-0.8-0.6-1.2-1.8-1.2h-1.2v2.5H14.5z"/>
			<path class="st1" d="M22.1,31c1,0,1.7,0.5,2.2,1l-0.8,0.9c-0.4-0.4-0.9-0.6-1.5-0.6c-1.3,0-2.2,1.1-2.2,2.8
				c0,1.8,0.9,2.9,2.2,2.9c0.7,0,1.2-0.3,1.7-0.8l0.8,0.9c-0.6,0.7-1.5,1.1-2.4,1.1c-2,0-3.6-1.4-3.6-4C18.5,32.5,20.1,31,22.1,31z"
				/>
		</g>
	</g>
</g>
<g id="tbc">
	<polygon class="st5" points="34,28 0,28 0,14 26,14 	"/>
	<g>
		<g>
			<path class="st1" d="M5.6,18.3H3.3v-1.2h5.9v1.2H7V25H5.6V18.3z"/>
			<path class="st1" d="M10.4,17.2h2.5c1.6,0,2.8,0.5,2.8,1.9c0,0.7-0.4,1.5-1.3,1.7l0,0c1.1,0.2,1.8,0.8,1.8,1.9
				c0,1.6-1.3,2.3-3,2.3h-2.7L10.4,17.2L10.4,17.2z M12.7,20.4c1.1,0,1.6-0.4,1.6-1.2c0-0.7-0.5-1-1.5-1h-1v2.2H12.7z M12.9,23.9
				c1.2,0,1.8-0.4,1.8-1.3c0-0.8-0.6-1.2-1.8-1.2h-1.2v2.5H12.9z"/>
			<path class="st1" d="M20.5,17c1,0,1.7,0.5,2.2,1L22,18.9c-0.4-0.4-0.9-0.6-1.5-0.6c-1.3,0-2.2,1.1-2.2,2.8c0,1.8,0.9,2.9,2.2,2.9
				c0.7,0,1.2-0.3,1.7-0.8l0.8,0.9c-0.6,0.7-1.5,1.1-2.4,1.1c-2,0-3.6-1.4-3.6-4C16.9,18.5,18.5,17,20.5,17z"/>
		</g>
	</g>
</g>
<g id="bc">
	<polygon class="st6" points="26,14 0,14 0,0 18,0 	"/>
	<g>
		<g>
			<path class="st1" d="M4,3.2h2.5c1.6,0,2.8,0.5,2.8,1.9c0,0.7-0.4,1.5-1.3,1.7l0,0C9.1,7,9.7,7.6,9.7,8.7c0,1.6-1.3,2.3-3,2.3H4
				V3.2z M6.4,6.4C7.5,6.4,8,6,8,5.2c0-0.7-0.5-1-1.5-1h-1v2.2L6.4,6.4z M6.6,9.9c1.2,0,1.8-0.4,1.8-1.3c0-0.8-0.6-1.2-1.8-1.2H5.4
				v2.5H6.6z"/>
			<path class="st1" d="M14.2,3c1,0,1.7,0.5,2.2,1l-0.8,0.9c-0.4-0.4-0.9-0.6-1.5-0.6c-1.3,0-2.2,1.1-2.2,2.8c0,1.8,0.9,2.9,2.2,2.9
				c0.7,0,1.2-0.3,1.7-0.8l0.8,0.9c-0.6,0.7-1.5,1.1-2.4,1.1c-2,0-3.6-1.4-3.6-4C10.5,4.5,12.2,3,14.2,3z"/>
		</g>
	</g>
</g>
</svg>
