<?xml version="1.0" encoding="UTF-8"?>
<!-- Generator: Adobe Illustrator 20.1.0, SVG Export Plug-In . SVG Version: 6.00 Build 0)  -->
<!DOCTYPE svg PUBLIC "-//W3C//DTD SVG 1.1//EN" "http://www.w3.org/Graphics/SVG/1.1/DTD/svg11.dtd">
<svg version="1.1" id="label" xmlns="http://www.w3.org/2000/svg" xmlns:xlink="http://www.w3.org/1999/xlink" x="0px" y="0px" width="123px" height="414px" viewBox="0 0 123 414" style="enable-background:new 0 0 123 414;" xml:space="preserve" preserveAspectRatio="none">
<style type="text/css">
	.st0{fill:#191919;}
	.st1{fill:#FFFFFF;}
	.st2{fill:#757575;}
	.st3{fill:#02B757;}
	.st4{fill:#FFE000;}
	.st5{fill:#F68802;}
	.st6{fill:#00A2FF;}
</style>
<g id="ltd-u-obc-13_1_">
	<g>
		<polygon class="st0" points="88,412 54,412 46,398 80,398   "/>
		<g>
			<g>
				<path class="st1" d="M57.6,405c0-2.5,1.4-4,3.5-4c2,0,3.5,1.5,3.5,4s-1.4,4.1-3.5,4.1S57.6,407.6,57.6,405z M63.1,405      c0-1.8-0.8-2.8-2-2.8s-2,1.1-2,2.8c0,1.8,0.8,2.9,2,2.9C62.3,407.9,63.1,406.8,63.1,405z"/>
				<path class="st1" d="M65.9,401.2h2.5c1.6,0,2.8,0.5,2.8,1.9c0,0.7-0.4,1.5-1.3,1.7l0,0c1.1,0.2,1.8,0.8,1.8,1.9      c0,1.6-1.3,2.3-3,2.3H66v-7.8H65.9z M68.3,404.4c1.1,0,1.6-0.4,1.6-1.2c0-0.7-0.5-1-1.5-1h-1v2.2H68.3z M68.5,407.9      c1.2,0,1.8-0.4,1.8-1.3c0-0.8-0.6-1.2-1.8-1.2h-1.2v2.5H68.5z"/>
				<path class="st1" d="M76.1,401c1,0,1.7,0.5,2.2,1l-0.8,0.9c-0.4-0.4-0.9-0.6-1.5-0.6c-1.3,0-2.2,1.1-2.2,2.8      c0,1.8,0.9,2.9,2.2,2.9c0.7,0,1.2-0.3,1.7-0.8l0.8,0.9c-0.6,0.7-1.5,1.1-2.4,1.1c-2,0-3.6-1.4-3.6-4      C72.5,402.5,74.1,401,76.1,401z"/>
			</g>
		</g>
	</g>
	<g>
		<polygon class="st2" points="120,412 90,412 82,398 112,398   "/>
		<g>
			<g>
				<path class="st1" d="M93.9,407.9h1.7v-5h-1.4V402c0.8-0.1,1.3-0.3,1.8-0.6h1v6.5h1.5v1.1h-4.6V407.9z"/>
				<path class="st1" d="M100,407.2c0.5,0.5,1,0.8,1.8,0.8c0.8,0,1.4-0.4,1.4-1.2c0-0.8-0.5-1.3-2.2-1.3v-1c1.5,0,2-0.5,2-1.2      c0-0.6-0.4-1-1.1-1c-0.6,0-1.1,0.3-1.5,0.7l-0.7-0.9c0.6-0.6,1.4-1,2.3-1c1.5,0,2.5,0.7,2.5,2c0,0.9-0.5,1.4-1.3,1.8v0      c0.9,0.2,1.6,0.9,1.6,1.9c0,1.4-1.2,2.2-2.7,2.2c-1.2,0-2.1-0.5-2.6-1.1L100,407.2z"/>
				<path class="st1" d="M107.6,405.5h-2.1v-1h2.1v-2.3h1v2.3h2.1v1h-2.1v2.3h-1V405.5z"/>
			</g>
		</g>
	</g>
	<g>
		<polygon class="st3" points="34,412 2,412 2,398 26,398   "/>
		<g>
			<g>
				<path class="st1" d="M6,401.2h1.4v6.7h3.2v1.2H6V401.2z"/>
				<path class="st1" d="M13.4,402.3h-2.3v-1.2h5.9v1.2h-2.3v6.7h-1.4V402.3z"/>
				<path class="st1" d="M18.2,401.2h2.1c2.4,0,3.8,1.3,3.8,3.9c0,2.6-1.4,4-3.8,4h-2.2V401.2z M20.2,407.9c1.6,0,2.5-0.9,2.5-2.8      c0-1.9-0.9-2.8-2.5-2.8h-0.6v5.6H20.2z"/>
			</g>
		</g>
	</g>
	<polygon class="st4" points="52,412 34,412 26,398 44,398  "/>
	<g>
		<g>
			<path class="st0" d="M35.9,401.2h1.4v4.5c0,1.7,0.6,2.3,1.6,2.3c1,0,1.6-0.6,1.6-2.3v-4.5h1.3v4.4c0,2.6-1.2,3.6-3,3.6     c-1.8,0-3-1-3-3.6V401.2z"/>
		</g>
	</g>
</g>
<g id="ltd-u-tbc-13_1_">
	<g>
		<polygon class="st5" points="88,394 54,394 46,380 80,380   "/>
		<g>
			<g>
				<path class="st1" d="M59.6,384.3h-2.3v-1.2h5.9v1.2H61v6.7h-1.4V384.3z"/>
				<path class="st1" d="M64.4,383.2h2.5c1.6,0,2.8,0.5,2.8,1.9c0,0.7-0.4,1.5-1.3,1.7l0,0c1.1,0.2,1.8,0.8,1.8,1.9      c0,1.6-1.3,2.3-3,2.3h-2.7v-7.8H64.4z M66.7,386.4c1.1,0,1.6-0.4,1.6-1.2c0-0.7-0.5-1-1.5-1h-1v2.2H66.7z M66.9,389.9      c1.2,0,1.8-0.4,1.8-1.3c0-0.8-0.6-1.2-1.8-1.2h-1.2v2.5H66.9z"/>
				<path class="st1" d="M74.5,383c1,0,1.7,0.5,2.2,1l-0.8,0.9c-0.4-0.4-0.9-0.6-1.5-0.6c-1.3,0-2.2,1.1-2.2,2.8      c0,1.8,0.9,2.9,2.2,2.9c0.7,0,1.2-0.3,1.7-0.8l0.8,0.9c-0.6,0.7-1.5,1.1-2.4,1.1c-2,0-3.6-1.4-3.6-4      C70.9,384.5,72.5,383,74.5,383z"/>
			</g>
		</g>
	</g>
	<g>
		<polygon class="st2" points="120,394 90,394 82,380 112,380   "/>
		<g>
			<g>
				<path class="st1" d="M93.9,389.9h1.7v-5h-1.4V384c0.8-0.1,1.3-0.3,1.8-0.6h1v6.5h1.5v1.1h-4.6V389.9z"/>
				<path class="st1" d="M100,389.2c0.5,0.5,1,0.8,1.8,0.8c0.8,0,1.4-0.4,1.4-1.2c0-0.8-0.5-1.3-2.2-1.3v-1c1.5,0,2-0.5,2-1.2      c0-0.6-0.4-1-1.1-1c-0.6,0-1.1,0.3-1.5,0.7l-0.7-0.9c0.6-0.6,1.4-1,2.3-1c1.5,0,2.5,0.7,2.5,2c0,0.9-0.5,1.4-1.3,1.8v0      c0.9,0.2,1.6,0.9,1.6,1.9c0,1.4-1.2,2.2-2.7,2.2c-1.2,0-2.1-0.5-2.6-1.1L100,389.2z"/>
				<path class="st1" d="M107.6,387.5h-2.1v-1h2.1v-2.3h1v2.3h2.1v1h-2.1v2.3h-1V387.5z"/>
			</g>
		</g>
	</g>
	<g>
		<polygon class="st3" points="34,394 2,394 2,380 26,380   "/>
		<g>
			<g>
				<path class="st1" d="M6,383.2h1.4v6.7h3.2v1.2H6V383.2z"/>
				<path class="st1" d="M13.4,384.3h-2.3v-1.2h5.9v1.2h-2.3v6.7h-1.4V384.3z"/>
				<path class="st1" d="M18.2,383.2h2.1c2.4,0,3.8,1.3,3.8,3.9c0,2.6-1.4,4-3.8,4h-2.2V383.2z M20.2,389.9c1.6,0,2.5-0.9,2.5-2.8      c0-1.9-0.9-2.8-2.5-2.8h-0.6v5.6H20.2z"/>
			</g>
		</g>
	</g>
	<polygon class="st4" points="52,394 34,394 26,380 44,380  "/>
	<g>
		<g>
			<path class="st0" d="M35.9,383.2h1.4v4.5c0,1.7,0.6,2.3,1.6,2.3c1,0,1.6-0.6,1.6-2.3v-4.5h1.3v4.4c0,2.6-1.2,3.6-3,3.6     c-1.8,0-3-1-3-3.6V383.2z"/>
		</g>
	</g>
</g>
<g id="ltd-u-bc-13_1_">
	<g>
		<polygon class="st6" points="80,376 54,376 46,362 72,362   "/>
		<g>
			<g>
				<path class="st1" d="M58,365.2h2.5c1.6,0,2.8,0.5,2.8,1.9c0,0.7-0.4,1.5-1.3,1.7l0,0c1.1,0.2,1.8,0.8,1.8,1.9      c0,1.6-1.3,2.3-3,2.3H58V365.2z M60.4,368.4c1.1,0,1.6-0.4,1.6-1.2c0-0.7-0.5-1-1.5-1h-1v2.2H60.4z M60.5,371.9      c1.2,0,1.8-0.4,1.8-1.3c0-0.8-0.6-1.2-1.8-1.2h-1.2v2.5H60.5z"/>
				<path class="st1" d="M68.2,365c1,0,1.7,0.5,2.2,1l-0.8,0.9c-0.4-0.4-0.9-0.6-1.5-0.6c-1.3,0-2.2,1.1-2.2,2.8      c0,1.8,0.9,2.9,2.2,2.9c0.7,0,1.2-0.3,1.7-0.8l0.8,0.9c-0.6,0.7-1.5,1.1-2.4,1.1c-2,0-3.6-1.4-3.6-4      C64.5,366.5,66.2,365,68.2,365z"/>
			</g>
		</g>
	</g>
	<g>
		<polygon class="st2" points="112,376 82,376 74,362 104,362   "/>
		<g>
			<g>
				<path class="st1" d="M85.9,371.9h1.7v-5h-1.4V366c0.8-0.1,1.3-0.3,1.8-0.6h1v6.5h1.5v1.1h-4.6V371.9z"/>
				<path class="st1" d="M92,371.2c0.5,0.5,1,0.8,1.8,0.8c0.8,0,1.4-0.4,1.4-1.2c0-0.8-0.5-1.3-2.2-1.3v-1c1.5,0,2-0.5,2-1.2      c0-0.6-0.4-1-1.1-1c-0.6,0-1.1,0.3-1.5,0.7l-0.7-0.9c0.6-0.6,1.4-1,2.3-1c1.5,0,2.5,0.7,2.5,2c0,0.9-0.5,1.4-1.3,1.8v0      c0.9,0.2,1.6,0.9,1.6,1.9c0,1.4-1.2,2.2-2.7,2.2c-1.2,0-2.1-0.5-2.6-1.1L92,371.2z"/>
				<path class="st1" d="M99.6,369.5h-2.1v-1h2.1v-2.3h1v2.3h2.1v1h-2.1v2.3h-1V369.5z"/>
			</g>
		</g>
	</g>
	<g>
		<polygon class="st3" points="34,376 2,376 2,362 26,362   "/>
		<g>
			<g>
				<path class="st1" d="M6,365.2h1.4v6.7h3.2v1.2H6V365.2z"/>
				<path class="st1" d="M13.4,366.3h-2.3v-1.2h5.9v1.2h-2.3v6.7h-1.4V366.3z"/>
				<path class="st1" d="M18.2,365.2h2.1c2.4,0,3.8,1.3,3.8,3.9c0,2.6-1.4,4-3.8,4h-2.2V365.2z M20.2,371.9c1.6,0,2.5-0.9,2.5-2.8      c0-1.9-0.9-2.8-2.5-2.8h-0.6v5.6H20.2z"/>
			</g>
		</g>
	</g>
	<polygon class="st4" points="52,376 34,376 26,362 44,362  "/>
	<g>
		<g>
			<path class="st0" d="M35.9,365.2h1.4v4.5c0,1.7,0.6,2.3,1.6,2.3c1,0,1.6-0.6,1.6-2.3v-4.5h1.3v4.4c0,2.6-1.2,3.6-3,3.6     c-1.8,0-3-1-3-3.6V365.2z"/>
		</g>
	</g>
</g>
<g id="ltd-u-13">
	<g>
		<polygon class="st2" points="84,358 54,358 46,344 76,344   "/>
		<g>
			<g>
				<path class="st1" d="M57.9,353.9h1.7v-5h-1.4V348c0.8-0.1,1.3-0.3,1.8-0.6h1v6.5h1.5v1.1h-4.6V353.9z"/>
				<path class="st1" d="M64,353.2c0.5,0.5,1,0.8,1.8,0.8c0.8,0,1.4-0.4,1.4-1.2c0-0.8-0.5-1.3-2.2-1.3v-1c1.5,0,2-0.5,2-1.2      c0-0.6-0.4-1-1.1-1c-0.6,0-1.1,0.3-1.5,0.7l-0.7-0.9c0.6-0.6,1.4-1,2.3-1c1.5,0,2.5,0.7,2.5,2c0,0.9-0.5,1.4-1.3,1.8v0      c0.9,0.2,1.6,0.9,1.6,1.9c0,1.4-1.2,2.2-2.7,2.2c-1.2,0-2.1-0.5-2.6-1.1L64,353.2z"/>
				<path class="st1" d="M71.6,351.5h-2.1v-1h2.1v-2.3h1v2.3h2.1v1h-2.1v2.3h-1V351.5z"/>
			</g>
		</g>
	</g>
	<g>
		<polygon class="st3" points="34,358 2,358 2,344 26,344   "/>
		<g>
			<g>
				<path class="st1" d="M6,347.2h1.4v6.7h3.2v1.2H6V347.2z"/>
				<path class="st1" d="M13.4,348.3h-2.3v-1.2h5.9v1.2h-2.3v6.7h-1.4V348.3z"/>
				<path class="st1" d="M18.2,347.2h2.1c2.4,0,3.8,1.3,3.8,3.9c0,2.6-1.4,4-3.8,4h-2.2V347.2z M20.2,353.9c1.6,0,2.5-0.9,2.5-2.8      c0-1.9-0.9-2.8-2.5-2.8h-0.6v5.6H20.2z"/>
			</g>
		</g>
	</g>
	<polygon class="st4" points="52,358 34,358 26,344 44,344  "/>
	<g>
		<g>
			<path class="st0" d="M35.9,347.2h1.4v4.5c0,1.7,0.6,2.3,1.6,2.3c1,0,1.6-0.6,1.6-2.3v-4.5h1.3v4.4c0,2.6-1.2,3.6-3,3.6     c-1.8,0-3-1-3-3.6V347.2z"/>
		</g>
	</g>
</g>
<g id="ltd-obc-13">
	<g>
		<polygon class="st0" points="70,340 36,340 28,326 62,326   "/>
		<g>
			<g>
				<path class="st1" d="M39.6,333c0-2.5,1.4-4,3.5-4c2,0,3.5,1.5,3.5,4s-1.4,4.1-3.5,4.1S39.6,335.6,39.6,333z M45.1,333      c0-1.8-0.8-2.8-2-2.8s-2,1.1-2,2.8c0,1.8,0.8,2.9,2,2.9S45.1,334.8,45.1,333z"/>
				<path class="st1" d="M47.9,329.2h2.5c1.6,0,2.8,0.5,2.8,1.9c0,0.7-0.4,1.5-1.3,1.7l0,0c1.1,0.2,1.8,0.8,1.8,1.9      c0,1.6-1.3,2.3-3,2.3H48v-7.8H47.9z M50.3,332.4c1.1,0,1.6-0.4,1.6-1.2c0-0.7-0.5-1-1.5-1h-1v2.2H50.3z M50.5,335.9      c1.2,0,1.8-0.4,1.8-1.3c0-0.8-0.6-1.2-1.8-1.2h-1.2v2.5H50.5z"/>
				<path class="st1" d="M58.1,329c1,0,1.7,0.5,2.2,1l-0.8,0.9c-0.4-0.4-0.9-0.6-1.5-0.6c-1.3,0-2.2,1.1-2.2,2.8      c0,1.8,0.9,2.9,2.2,2.9c0.7,0,1.2-0.3,1.7-0.8l0.8,0.9c-0.6,0.7-1.5,1.1-2.4,1.1c-2,0-3.6-1.4-3.6-4      C54.5,330.5,56.1,329,58.1,329z"/>
			</g>
		</g>
	</g>
	<g>
		<polygon class="st2" points="102,340 72,340 64,326 94,326   "/>
		<g>
			<g>
				<path class="st1" d="M75.9,335.9h1.7v-5h-1.4V330c0.8-0.1,1.3-0.3,1.8-0.6h1v6.5h1.5v1.1h-4.6V335.9z"/>
				<path class="st1" d="M82,335.2c0.5,0.5,1,0.8,1.8,0.8c0.8,0,1.4-0.4,1.4-1.2c0-0.8-0.5-1.3-2.2-1.3v-1c1.5,0,2-0.5,2-1.2      c0-0.6-0.4-1-1.1-1c-0.6,0-1.1,0.3-1.5,0.7l-0.7-0.9c0.6-0.6,1.4-1,2.3-1c1.5,0,2.5,0.7,2.5,2c0,0.9-0.5,1.4-1.3,1.8v0      c0.9,0.2,1.6,0.9,1.6,1.9c0,1.4-1.2,2.2-2.7,2.2c-1.2,0-2.1-0.5-2.6-1.1L82,335.2z"/>
				<path class="st1" d="M89.6,333.5h-2.1v-1h2.1v-2.3h1v2.3h2.1v1h-2.1v2.3h-1V333.5z"/>
			</g>
		</g>
	</g>
	<g id="ltd_3_">
		<polygon class="st3" points="34,340 2,340 2,326 26,326   "/>
		<g>
			<g>
				<path class="st1" d="M6,329.2h1.4v6.7h3.2v1.2H6V329.2z"/>
				<path class="st1" d="M13.4,330.3h-2.3v-1.2h5.9v1.2h-2.3v6.7h-1.4V330.3z"/>
				<path class="st1" d="M18.2,329.2h2.1c2.4,0,3.8,1.3,3.8,3.9c0,2.6-1.4,4-3.8,4h-2.2V329.2z M20.2,335.9c1.6,0,2.5-0.9,2.5-2.8      c0-1.9-0.9-2.8-2.5-2.8h-0.6v5.6H20.2z"/>
			</g>
		</g>
	</g>
</g>
<g id="ltd-tbc-13">
	<g>
		<polygon class="st5" points="70,322 36,322 28,308 62,308   "/>
		<g>
			<g>
				<path class="st1" d="M41.6,312.3h-2.3v-1.2h5.9v1.2H43v6.7h-1.4V312.3z"/>
				<path class="st1" d="M46.4,311.2h2.5c1.6,0,2.8,0.5,2.8,1.9c0,0.7-0.4,1.5-1.3,1.7l0,0c1.1,0.2,1.8,0.8,1.8,1.9      c0,1.6-1.3,2.3-3,2.3h-2.7v-7.8H46.4z M48.7,314.4c1.1,0,1.6-0.4,1.6-1.2c0-0.7-0.5-1-1.5-1h-1v2.2H48.7z M48.9,317.9      c1.2,0,1.8-0.4,1.8-1.3c0-0.8-0.6-1.2-1.8-1.2h-1.2v2.5H48.9z"/>
				<path class="st1" d="M56.5,311c1,0,1.7,0.5,2.2,1l-0.7,0.9c-0.4-0.4-0.9-0.6-1.5-0.6c-1.3,0-2.2,1.1-2.2,2.8      c0,1.8,0.9,2.9,2.2,2.9c0.7,0,1.2-0.3,1.7-0.8l0.8,0.9c-0.6,0.7-1.5,1.1-2.4,1.1c-2,0-3.6-1.4-3.6-4      C52.9,312.5,54.5,311,56.5,311z"/>
			</g>
		</g>
	</g>
	<g>
		<polygon class="st2" points="102,322 72,322 64,308 94,308   "/>
		<g>
			<g>
				<path class="st1" d="M75.9,317.9h1.7v-5h-1.4V312c0.8-0.1,1.3-0.3,1.8-0.6h1v6.5h1.5v1.1h-4.6V317.9z"/>
				<path class="st1" d="M82,317.2c0.5,0.5,1,0.8,1.8,0.8c0.8,0,1.4-0.4,1.4-1.2c0-0.8-0.5-1.3-2.2-1.3v-1c1.5,0,2-0.5,2-1.2      c0-0.6-0.4-1-1.1-1c-0.6,0-1.1,0.3-1.5,0.7l-0.7-0.9c0.6-0.6,1.4-1,2.3-1c1.5,0,2.5,0.7,2.5,2c0,0.9-0.5,1.4-1.3,1.8v0      c0.9,0.2,1.6,0.9,1.6,1.9c0,1.4-1.2,2.2-2.7,2.2c-1.2,0-2.1-0.5-2.6-1.1L82,317.2z"/>
				<path class="st1" d="M89.6,315.5h-2.1v-1h2.1v-2.3h1v2.3h2.1v1h-2.1v2.3h-1V315.5z"/>
			</g>
		</g>
	</g>
	<g id="ltd_2_">
		<polygon class="st3" points="34,322 2,322 2,308 26,308   "/>
		<g>
			<g>
				<path class="st1" d="M6,311.2h1.4v6.7h3.2v1.2H6V311.2z"/>
				<path class="st1" d="M13.4,312.3h-2.3v-1.2h5.9v1.2h-2.3v6.7h-1.4V312.3z"/>
				<path class="st1" d="M18.2,311.2h2.1c2.4,0,3.8,1.3,3.8,3.9c0,2.6-1.4,4-3.8,4h-2.2V311.2z M20.2,317.9c1.6,0,2.5-0.9,2.5-2.8      c0-1.9-0.9-2.8-2.5-2.8h-0.6v5.6H20.2z"/>
			</g>
		</g>
	</g>
</g>
<g id="ltd-bc-13">
	<g>
		<polygon class="st6" points="62,304 36,304 28,290 54,290   "/>
		<g>
			<g>
				<path class="st1" d="M40,293.2h2.5c1.6,0,2.8,0.5,2.8,1.9c0,0.7-0.4,1.5-1.3,1.7l0,0c1.1,0.2,1.8,0.8,1.8,1.9      c0,1.6-1.3,2.3-3,2.3H40V293.2z M42.4,296.4c1.1,0,1.6-0.4,1.6-1.2c0-0.7-0.5-1-1.5-1h-1v2.2H42.4z M42.5,299.9      c1.2,0,1.8-0.4,1.8-1.3c0-0.8-0.6-1.2-1.8-1.2h-1.2v2.5H42.5z"/>
				<path class="st1" d="M50.2,293c1,0,1.7,0.5,2.2,1l-0.8,0.9c-0.4-0.4-0.9-0.6-1.5-0.6c-1.3,0-2.2,1.1-2.2,2.8      c0,1.8,0.9,2.9,2.2,2.9c0.7,0,1.2-0.3,1.7-0.8l0.8,0.9c-0.6,0.7-1.5,1.1-2.4,1.1c-2,0-3.6-1.4-3.6-4      C46.5,294.5,48.2,293,50.2,293z"/>
			</g>
		</g>
	</g>
	<g>
		<polygon class="st2" points="94,304 64,304 56,290 86,290   "/>
		<g>
			<g>
				<path class="st1" d="M67.9,299.9h1.7v-5h-1.4V294c0.8-0.1,1.3-0.3,1.8-0.6h1v6.5h1.5v1.1h-4.6V299.9z"/>
				<path class="st1" d="M74,299.2c0.5,0.5,1,0.8,1.8,0.8c0.8,0,1.4-0.4,1.4-1.2c0-0.8-0.5-1.3-2.2-1.3v-1c1.5,0,2-0.5,2-1.2      c0-0.6-0.4-1-1.1-1c-0.6,0-1.1,0.3-1.5,0.7l-0.7-0.9c0.6-0.6,1.4-1,2.3-1c1.5,0,2.5,0.7,2.5,2c0,0.9-0.5,1.4-1.3,1.8v0      c0.9,0.2,1.6,0.9,1.6,1.9c0,1.4-1.2,2.2-2.7,2.2c-1.2,0-2.1-0.5-2.6-1.1L74,299.2z"/>
				<path class="st1" d="M81.6,297.5h-2.1v-1h2.1v-2.3h1v2.3h2.1v1h-2.1v2.3h-1V297.5z"/>
			</g>
		</g>
	</g>
	<g id="ltd_1_">
		<polygon class="st3" points="34,304 2,304 2,290 26,290   "/>
		<g>
			<g>
				<path class="st1" d="M6,293.2h1.4v6.7h3.2v1.2H6V293.2z"/>
				<path class="st1" d="M13.4,294.3h-2.3v-1.2h5.9v1.2h-2.3v6.7h-1.4V294.3z"/>
				<path class="st1" d="M18.2,293.2h2.1c2.4,0,3.8,1.3,3.8,3.9c0,2.6-1.4,4-3.8,4h-2.2V293.2z M20.2,299.9c1.6,0,2.5-0.9,2.5-2.8      c0-1.9-0.9-2.8-2.5-2.8h-0.6v5.6H20.2z"/>
			</g>
		</g>
	</g>
</g>
<g id="ltd-13">
	<g>
		<polygon class="st2" points="66,286 36,286 28,272 58,272   "/>
		<g>
			<g>
				<path class="st1" d="M39.9,281.9h1.7v-5h-1.4V276c0.8-0.1,1.3-0.3,1.8-0.6h1v6.5h1.5v1.1h-4.6V281.9z"/>
				<path class="st1" d="M46,281.2c0.5,0.5,1,0.8,1.8,0.8c0.8,0,1.4-0.4,1.4-1.2c0-0.8-0.5-1.3-2.2-1.3v-1c1.5,0,2-0.5,2-1.2      c0-0.6-0.4-1-1.1-1c-0.6,0-1.1,0.3-1.5,0.7l-0.7-0.9c0.6-0.6,1.4-1,2.3-1c1.5,0,2.5,0.7,2.5,2c0,0.9-0.5,1.4-1.3,1.8v0      c0.9,0.2,1.6,0.9,1.6,1.9c0,1.4-1.2,2.2-2.7,2.2c-1.2,0-2.1-0.5-2.6-1.1L46,281.2z"/>
				<path class="st1" d="M53.6,279.5h-2.1v-1h2.1v-2.3h1v2.3h2.1v1h-2.1v2.3h-1V279.5z"/>
			</g>
		</g>
	</g>
	<g id="ltd">
		<polygon class="st3" points="34,286 2,286 2,272 26,272   "/>
		<g>
			<g>
				<path class="st1" d="M6,275.2h1.4v6.7h3.2v1.2H6V275.2z"/>
				<path class="st1" d="M13.4,276.3h-2.3v-1.2h5.9v1.2h-2.3v6.7h-1.4V276.3z"/>
				<path class="st1" d="M18.2,275.2h2.1c2.4,0,3.8,1.3,3.8,3.9c0,2.6-1.4,4-3.8,4h-2.2V275.2z M20.2,281.9c1.6,0,2.5-0.9,2.5-2.8      c0-1.9-0.9-2.8-2.5-2.8h-0.6v5.6H20.2z"/>
			</g>
		</g>
	</g>
</g>
<g id="_x31_3_x2B_-obc">
	<g>
		<polygon class="st0" points="36,268 2,268 2,254 28,254   "/>
		<g>
			<g>
				<path class="st1" d="M5.6,261c0-2.5,1.4-4,3.5-4c2,0,3.5,1.5,3.5,4c0,2.5-1.4,4.1-3.5,4.1C7,265.1,5.6,263.6,5.6,261z M11.1,261      c0-1.8-0.8-2.8-2-2.8c-1.2,0-2,1.1-2,2.8c0,1.8,0.8,2.9,2,2.9C10.3,263.9,11.1,262.8,11.1,261z"/>
				<path class="st1" d="M13.9,257.2h2.5c1.6,0,2.8,0.5,2.8,1.9c0,0.7-0.4,1.5-1.3,1.7v0c1.1,0.2,1.8,0.8,1.8,1.9      c0,1.6-1.3,2.3-3,2.3h-2.7V257.2z M16.3,260.4c1.1,0,1.6-0.4,1.6-1.2c0-0.7-0.5-1-1.5-1h-1v2.2H16.3z M16.5,263.9      c1.2,0,1.8-0.4,1.8-1.3c0-0.8-0.6-1.2-1.8-1.2h-1.2v2.5H16.5z"/>
				<path class="st1" d="M24.1,257c1,0,1.7,0.5,2.2,1l-0.8,0.9c-0.4-0.4-0.9-0.6-1.5-0.6c-1.3,0-2.2,1.1-2.2,2.8      c0,1.8,0.9,2.9,2.2,2.9c0.7,0,1.2-0.3,1.7-0.8l0.8,0.9c-0.6,0.7-1.5,1.1-2.4,1.1c-2,0-3.6-1.4-3.6-4      C20.5,258.5,22.1,257,24.1,257z"/>
			</g>
		</g>
	</g>
	<g>
		<polygon class="st2" points="68,268 38,268 30,254 60,254   "/>
		<g>
			<g>
				<path class="st1" d="M41.9,263.9h1.7v-5h-1.4V258c0.8-0.1,1.3-0.3,1.8-0.6h1v6.5h1.5v1.1h-4.6V263.9z"/>
				<path class="st1" d="M48,263.2c0.5,0.5,1,0.8,1.8,0.8c0.8,0,1.4-0.4,1.4-1.2c0-0.8-0.5-1.3-2.2-1.3v-1c1.5,0,2-0.5,2-1.2      c0-0.6-0.4-1-1.1-1c-0.6,0-1.1,0.3-1.5,0.7l-0.7-0.9c0.6-0.6,1.4-1,2.3-1c1.5,0,2.5,0.7,2.5,2c0,0.9-0.5,1.4-1.3,1.8v0      c0.9,0.2,1.6,0.9,1.6,1.9c0,1.4-1.2,2.2-2.7,2.2c-1.2,0-2.1-0.5-2.6-1.1L48,263.2z"/>
				<path class="st1" d="M55.6,261.5h-2.1v-1h2.1v-2.3h1v2.3h2.1v1h-2.1v2.3h-1V261.5z"/>
			</g>
		</g>
	</g>
</g>
<g id="_x31_3_x2B_-tbc">
	<g>
		<polygon class="st5" points="36,250 2,250 2,236 28,236   "/>
		<g>
			<g>
				<path class="st1" d="M7.6,240.3H5.3v-1.2h5.9v1.2H9v6.7H7.6V240.3z"/>
				<path class="st1" d="M12.4,239.2h2.5c1.6,0,2.8,0.5,2.8,1.9c0,0.7-0.4,1.5-1.3,1.7v0c1.1,0.2,1.8,0.8,1.8,1.9      c0,1.6-1.3,2.3-3,2.3h-2.7V239.2z M14.7,242.4c1.1,0,1.6-0.4,1.6-1.2c0-0.7-0.5-1-1.5-1h-1v2.2H14.7z M14.9,245.9      c1.2,0,1.8-0.4,1.8-1.3c0-0.8-0.6-1.2-1.8-1.2h-1.2v2.5H14.9z"/>
				<path class="st1" d="M22.5,239c1,0,1.7,0.5,2.2,1l-0.8,0.9c-0.4-0.4-0.9-0.6-1.5-0.6c-1.3,0-2.2,1.1-2.2,2.8      c0,1.8,0.9,2.9,2.2,2.9c0.7,0,1.2-0.3,1.7-0.8l0.8,0.9c-0.6,0.7-1.5,1.1-2.4,1.1c-2,0-3.6-1.4-3.6-4      C18.9,240.5,20.5,239,22.5,239z"/>
			</g>
		</g>
	</g>
	<g>
		<polygon class="st2" points="68,250 38,250 30,236 60,236   "/>
		<g>
			<g>
				<path class="st1" d="M41.9,245.9h1.7v-5h-1.4V240c0.8-0.1,1.3-0.3,1.8-0.6h1v6.5h1.5v1.1h-4.6V245.9z"/>
				<path class="st1" d="M48,245.2c0.5,0.5,1,0.8,1.8,0.8c0.8,0,1.4-0.4,1.4-1.2c0-0.8-0.5-1.3-2.2-1.3v-1c1.5,0,2-0.5,2-1.2      c0-0.6-0.4-1-1.1-1c-0.6,0-1.1,0.3-1.5,0.7l-0.7-0.9c0.6-0.6,1.4-1,2.3-1c1.5,0,2.5,0.7,2.5,2c0,0.9-0.5,1.4-1.3,1.8v0      c0.9,0.2,1.6,0.9,1.6,1.9c0,1.4-1.2,2.2-2.7,2.2c-1.2,0-2.1-0.5-2.6-1.1L48,245.2z"/>
				<path class="st1" d="M55.6,243.5h-2.1v-1h2.1v-2.3h1v2.3h2.1v1h-2.1v2.3h-1V243.5z"/>
			</g>
		</g>
	</g>
</g>
<g>
	<g>
		<polygon class="st6" points="28,232 2,232 2,218 20,218   "/>
		<g>
			<g>
				<path class="st1" d="M6,221.2h2.5c1.6,0,2.8,0.5,2.8,1.9c0,0.7-0.4,1.5-1.3,1.7v0c1.1,0.2,1.8,0.8,1.8,1.9c0,1.6-1.3,2.3-3,2.3      H6V221.2z M8.4,224.4c1.1,0,1.6-0.4,1.6-1.2c0-0.7-0.5-1-1.5-1h-1v2.2H8.4z M8.6,227.9c1.2,0,1.8-0.4,1.8-1.3      c0-0.8-0.6-1.2-1.8-1.2H7.4v2.5H8.6z"/>
				<path class="st1" d="M16.2,221c1,0,1.7,0.5,2.2,1l-0.8,0.9c-0.4-0.4-0.9-0.6-1.5-0.6c-1.3,0-2.2,1.1-2.2,2.8      c0,1.8,0.9,2.9,2.2,2.9c0.7,0,1.2-0.3,1.7-0.8l0.8,0.9c-0.6,0.7-1.5,1.1-2.4,1.1c-2,0-3.6-1.4-3.6-4      C12.5,222.5,14.2,221,16.2,221z"/>
			</g>
		</g>
	</g>
	<g>
		<polygon class="st2" points="60,232 30,232 22,218 52,218   "/>
		<g>
			<g>
				<path class="st1" d="M33.9,227.9h1.7v-5h-1.4V222c0.8-0.1,1.3-0.3,1.8-0.6h1v6.5h1.5v1.1h-4.6V227.9z"/>
				<path class="st1" d="M40,227.2c0.5,0.5,1,0.8,1.8,0.8c0.8,0,1.4-0.4,1.4-1.2c0-0.8-0.5-1.3-2.2-1.3v-1c1.5,0,2-0.5,2-1.2      c0-0.6-0.4-1-1.1-1c-0.6,0-1.1,0.3-1.5,0.7l-0.7-0.9c0.6-0.6,1.4-1,2.3-1c1.5,0,2.5,0.7,2.5,2c0,0.9-0.5,1.4-1.3,1.8v0      c0.9,0.2,1.6,0.9,1.6,1.9c0,1.4-1.2,2.2-2.7,2.2c-1.2,0-2.1-0.5-2.6-1.1L40,227.2z"/>
				<path class="st1" d="M47.6,225.5h-2.1v-1h2.1v-2.3h1v2.3h2.1v1h-2.1v2.3h-1V225.5z"/>
			</g>
		</g>
	</g>
</g>
<g id="_x31_3_x2B_">
	<polygon class="st2" points="32,214 2,214 2,200 24,200  "/>
	<g>
		<g>
			<path class="st1" d="M5.9,209.9h1.7v-5H6.2V204c0.8-0.1,1.3-0.3,1.8-0.6h1v6.5h1.5v1.1H5.9V209.9z"/>
			<path class="st1" d="M12,209.2c0.5,0.5,1,0.8,1.8,0.8c0.8,0,1.4-0.4,1.4-1.2c0-0.8-0.5-1.3-2.2-1.3v-1c1.5,0,2-0.5,2-1.2     c0-0.6-0.4-1-1.1-1c-0.6,0-1.1,0.3-1.5,0.7l-0.7-0.9c0.6-0.6,1.4-1,2.3-1c1.5,0,2.5,0.7,2.5,2c0,0.9-0.5,1.4-1.3,1.8v0     c0.9,0.2,1.6,0.9,1.6,1.9c0,1.4-1.2,2.2-2.7,2.2c-1.2,0-2.1-0.5-2.6-1.1L12,209.2z"/>
			<path class="st1" d="M19.6,207.5h-2.1v-1h2.1v-2.3h1v2.3h2.1v1h-2.1v2.3h-1V207.5z"/>
		</g>
	</g>
</g>
<g id="unique-obc">
	<g>
		<polygon class="st0" points="108,196 74,196 66,182 100,182   "/>
		<g>
			<g>
				<path class="st1" d="M77.6,189c0-2.5,1.4-4,3.5-4c2,0,3.5,1.5,3.5,4s-1.4,4.1-3.5,4.1S77.6,191.6,77.6,189z M83.1,189      c0-1.8-0.8-2.8-2-2.8s-2,1.1-2,2.8c0,1.8,0.8,2.9,2,2.9C82.3,191.9,83.1,190.8,83.1,189z"/>
				<path class="st1" d="M85.9,185.2h2.5c1.6,0,2.8,0.5,2.8,1.9c0,0.7-0.4,1.5-1.3,1.7l0,0c1.1,0.2,1.8,0.8,1.8,1.9      c0,1.6-1.3,2.3-3,2.3H86v-7.8H85.9z M88.3,188.4c1.1,0,1.6-0.4,1.6-1.2c0-0.7-0.5-1-1.5-1h-1v2.2H88.3z M88.5,191.9      c1.2,0,1.8-0.4,1.8-1.3c0-0.8-0.6-1.2-1.8-1.2h-1.2v2.5H88.5z"/>
				<path class="st1" d="M96.1,185c1,0,1.7,0.5,2.2,1l-0.8,0.9c-0.4-0.4-0.9-0.6-1.5-0.6c-1.3,0-2.2,1.1-2.2,2.8      c0,1.8,0.9,2.9,2.2,2.9c0.7,0,1.2-0.3,1.7-0.8l0.8,0.9c-0.6,0.7-1.5,1.1-2.4,1.1c-2,0-3.6-1.4-3.6-4      C92.5,186.5,94.1,185,96.1,185z"/>
			</g>
		</g>
	</g>
	<g>
		<polygon class="st4" points="72,196 54,196 46,182 64,182   "/>
		<polygon class="st3" points="54,196 2,196 2,182 46,182   "/>
		<g>
			<g>
				<path class="st1" d="M6,185.2h1.4v6.7h3.2v1.2H6V185.2z"/>
				<path class="st1" d="M11.8,185.2h1.4v7.8h-1.4V185.2z"/>
				<path class="st1" d="M15,185.2h1.5L18,189l0.5,1.5l0,0L19,189l1.4-3.9H22v7.8h-1.3v-3.6c0-0.7,0.1-1.8,0.2-2.5l0,0l-0.6,1.8      l-1.4,3.6h-0.6l-1.4-3.6l-0.6-1.8l0,0c0.1,0.7,0.2,1.8,0.2,2.5v3.6H15V185.2z"/>
				<path class="st1" d="M23.8,185.2h1.4v7.8h-1.4V185.2z"/>
				<path class="st1" d="M28.6,186.3h-2.3v-1.2h5.9v1.2H30v6.7h-1.4V186.3z"/>
				<path class="st1" d="M33.4,185.2h4.7v1.2h-3.3v2h2.8v1.2h-2.8v2.3h3.4v1.2h-4.8V185.2z"/>
				<path class="st1" d="M39.6,185.2h2.1c2.4,0,3.8,1.3,3.8,3.9c0,2.6-1.4,4-3.8,4h-2.2v-7.9H39.6z M41.6,191.9      c1.6,0,2.5-0.9,2.5-2.8c0-1.9-0.9-2.8-2.5-2.8H41v5.6H41.6z"/>
			</g>
		</g>
		<g>
			<g>
				<path class="st0" d="M55.9,185.2h1.4v4.5c0,1.7,0.6,2.3,1.6,2.3s1.6-0.6,1.6-2.3v-4.5h1.3v4.4c0,2.6-1.2,3.6-3,3.6s-3-1-3-3.6      v-4.4H55.9z"/>
			</g>
		</g>
	</g>
</g>
<g id="unique-tbc">
	<g>
		<polygon class="st5" points="108,178 74,178 66,164 100,164   "/>
		<g>
			<g>
				<path class="st1" d="M79.6,168.3h-2.3v-1.2h5.9v1.2H81v6.7h-1.4V168.3z"/>
				<path class="st1" d="M84.4,167.2h2.5c1.6,0,2.8,0.5,2.8,1.9c0,0.7-0.4,1.5-1.3,1.7l0,0c1.1,0.2,1.8,0.8,1.8,1.9      c0,1.6-1.3,2.3-3,2.3h-2.7v-7.8H84.4z M86.7,170.4c1.1,0,1.6-0.4,1.6-1.2c0-0.7-0.5-1-1.5-1h-1v2.2H86.7z M86.9,173.9      c1.2,0,1.8-0.4,1.8-1.3c0-0.8-0.6-1.2-1.8-1.2h-1.2v2.5H86.9z"/>
				<path class="st1" d="M94.5,167c1,0,1.7,0.5,2.2,1l-0.8,0.9c-0.4-0.4-0.9-0.6-1.5-0.6c-1.3,0-2.2,1.1-2.2,2.8      c0,1.8,0.9,2.9,2.2,2.9c0.7,0,1.2-0.3,1.7-0.8l0.8,0.9c-0.6,0.7-1.5,1.1-2.4,1.1c-2,0-3.6-1.4-3.6-4      C90.9,168.5,92.5,167,94.5,167z"/>
			</g>
		</g>
	</g>
	<g>
		<polygon class="st4" points="72,178 54,178 46,164 64,164   "/>
		<polygon class="st3" points="54,178 2,178 2,164 46,164   "/>
		<g>
			<g>
				<path class="st1" d="M6,167.2h1.4v6.7h3.2v1.2H6V167.2z"/>
				<path class="st1" d="M11.8,167.2h1.4v7.8h-1.4V167.2z"/>
				<path class="st1" d="M15,167.2h1.5L18,171l0.5,1.5l0,0L19,171l1.4-3.9H22v7.8h-1.3v-3.6c0-0.7,0.1-1.8,0.2-2.5l0,0l-0.6,1.8      l-1.4,3.6h-0.6l-1.4-3.6l-0.6-1.8l0,0c0.1,0.7,0.2,1.8,0.2,2.5v3.6H15V167.2z"/>
				<path class="st1" d="M23.8,167.2h1.4v7.8h-1.4V167.2z"/>
				<path class="st1" d="M28.6,168.3h-2.3v-1.2h5.9v1.2H30v6.7h-1.4V168.3z"/>
				<path class="st1" d="M33.4,167.2h4.7v1.2h-3.3v2h2.8v1.2h-2.8v2.3h3.4v1.2h-4.8V167.2z"/>
				<path class="st1" d="M39.6,167.2h2.1c2.4,0,3.8,1.3,3.8,3.9c0,2.6-1.4,4-3.8,4h-2.2v-7.9H39.6z M41.6,173.9      c1.6,0,2.5-0.9,2.5-2.8c0-1.9-0.9-2.8-2.5-2.8H41v5.6H41.6z"/>
			</g>
		</g>
		<g>
			<g>
				<path class="st0" d="M55.9,167.2h1.4v4.5c0,1.7,0.6,2.3,1.6,2.3s1.6-0.6,1.6-2.3v-4.5h1.3v4.4c0,2.6-1.2,3.6-3,3.6s-3-1-3-3.6      v-4.4H55.9z"/>
			</g>
		</g>
	</g>
</g>
<g id="unique-bc">
	<g>
		<polygon class="st6" points="100,160 74,160 66,146 92,146   "/>
		<g>
			<g>
				<path class="st1" d="M78,149.2h2.5c1.6,0,2.8,0.5,2.8,1.9c0,0.7-0.4,1.5-1.3,1.7l0,0c1.1,0.2,1.8,0.8,1.8,1.9      c0,1.6-1.3,2.3-3,2.3H78V149.2z M80.4,152.4c1.1,0,1.6-0.4,1.6-1.2c0-0.7-0.5-1-1.5-1h-1v2.2H80.4z M80.5,155.9      c1.2,0,1.8-0.4,1.8-1.3c0-0.8-0.6-1.2-1.8-1.2h-1.2v2.5H80.5z"/>
				<path class="st1" d="M88.2,149c1,0,1.7,0.5,2.2,1l-0.8,0.9c-0.4-0.4-0.9-0.6-1.5-0.6c-1.3,0-2.2,1.1-2.2,2.8      c0,1.8,0.9,2.9,2.2,2.9c0.7,0,1.2-0.3,1.7-0.8l0.8,0.9c-0.6,0.7-1.5,1.1-2.4,1.1c-2,0-3.6-1.4-3.6-4      C84.5,150.5,86.2,149,88.2,149z"/>
			</g>
		</g>
	</g>
	<g>
		<polygon class="st4" points="72,160 54,160 46,146 64,146   "/>
		<polygon class="st3" points="54,160 2,160 2,146 46,146   "/>
		<g>
			<g>
				<path class="st1" d="M6,149.2h1.4v6.7h3.2v1.2H6V149.2z"/>
				<path class="st1" d="M11.8,149.2h1.4v7.8h-1.4V149.2z"/>
				<path class="st1" d="M15,149.2h1.5L18,153l0.5,1.5l0,0L19,153l1.4-3.9H22v7.8h-1.3v-3.6c0-0.7,0.1-1.8,0.2-2.5l0,0l-0.6,1.8      l-1.4,3.6h-0.6l-1.4-3.6l-0.6-1.8l0,0c0.1,0.7,0.2,1.8,0.2,2.5v3.6H15V149.2z"/>
				<path class="st1" d="M23.8,149.2h1.4v7.8h-1.4V149.2z"/>
				<path class="st1" d="M28.6,150.3h-2.3v-1.2h5.9v1.2H30v6.7h-1.4V150.3z"/>
				<path class="st1" d="M33.4,149.2h4.7v1.2h-3.3v2h2.8v1.2h-2.8v2.3h3.4v1.2h-4.8V149.2z"/>
				<path class="st1" d="M39.6,149.2h2.1c2.4,0,3.8,1.3,3.8,3.9c0,2.6-1.4,4-3.8,4h-2.2v-7.9H39.6z M41.6,155.9      c1.6,0,2.5-0.9,2.5-2.8c0-1.9-0.9-2.8-2.5-2.8H41v5.6H41.6z"/>
			</g>
		</g>
		<g>
			<g>
				<path class="st0" d="M55.9,149.2h1.4v4.5c0,1.7,0.6,2.3,1.6,2.3s1.6-0.6,1.6-2.3v-4.5h1.3v4.4c0,2.6-1.2,3.6-3,3.6s-3-1-3-3.6      v-4.4H55.9z"/>
			</g>
		</g>
	</g>
</g>
<g id="unique">
	<polygon class="st4" points="72,142 54,142 46,128 64,128  "/>
	<polygon class="st3" points="54,142 2,142 2,128 46,128  "/>
	<g>
		<g>
			<path class="st1" d="M6,131.2h1.4v6.7h3.2v1.2H6V131.2z"/>
			<path class="st1" d="M11.8,131.2h1.4v7.8h-1.4V131.2z"/>
			<path class="st1" d="M15,131.2h1.5L18,135l0.5,1.5l0,0L19,135l1.4-3.9H22v7.8h-1.3v-3.6c0-0.7,0.1-1.8,0.2-2.5l0,0l-0.6,1.8     l-1.4,3.6h-0.6l-1.4-3.6l-0.6-1.8l0,0c0.1,0.7,0.2,1.8,0.2,2.5v3.6H15V131.2z"/>
			<path class="st1" d="M23.8,131.2h1.4v7.8h-1.4V131.2z"/>
			<path class="st1" d="M28.6,132.3h-2.3v-1.2h5.9v1.2H30v6.7h-1.4V132.3z"/>
			<path class="st1" d="M33.4,131.2h4.7v1.2h-3.3v2h2.8v1.2h-2.8v2.3h3.4v1.2h-4.8V131.2z"/>
			<path class="st1" d="M39.6,131.2h2.1c2.4,0,3.8,1.3,3.8,3.9c0,2.6-1.4,4-3.8,4h-2.2v-7.9H39.6z M41.6,137.9     c1.6,0,2.5-0.9,2.5-2.8c0-1.9-0.9-2.8-2.5-2.8H41v5.6H41.6z"/>
		</g>
	</g>
	<g>
		<g>
			<path class="st0" d="M55.9,131.2h1.4v4.5c0,1.7,0.6,2.3,1.6,2.3s1.6-0.6,1.6-2.3v-4.5h1.3v4.4c0,2.6-1.2,3.6-3,3.6s-3-1-3-3.6     v-4.4H55.9z"/>
		</g>
	</g>
</g>
<g id="limited-obc">
	<g>
		<polygon class="st3" points="54,124 2,124 2,110 46,110   "/>
		<g>
			<g>
				<path class="st1" d="M6,113.2h1.4v6.7h3.2v1.1H6V113.2z"/>
				<path class="st1" d="M11.8,113.2h1.4v7.8h-1.4V113.2z"/>
				<path class="st1" d="M15,113.2h1.5L18,117l0.5,1.5l0,0L19,117l1.4-3.9H22v7.9h-1.3v-3.6c0-0.7,0.1-1.8,0.2-2.5l0,0l-0.6,1.8      l-1.4,3.6h-0.6l-1.4-3.6l-0.6-1.8l0,0c0.1,0.7,0.2,1.8,0.2,2.5v3.6H15V113.2z"/>
				<path class="st1" d="M23.8,113.2h1.4v7.8h-1.4V113.2z"/>
				<path class="st1" d="M28.6,114.3h-2.3v-1.2h5.9v1.2H30v6.7h-1.4V114.3z"/>
				<path class="st1" d="M33.4,113.2h4.7v1.2h-3.3v2h2.8v1.2h-2.8v2.3h3.4v1.1h-4.8V113.2z"/>
				<path class="st1" d="M39.6,113.2h2.1c2.4,0,3.8,1.3,3.8,3.9s-1.4,4-3.8,4h-2.2v-7.9H39.6z M41.6,119.9c1.6,0,2.5-0.9,2.5-2.8      s-0.9-2.8-2.5-2.8H41v5.6L41.6,119.9z"/>
			</g>
		</g>
	</g>
	<g>
		<polygon class="st0" points="90,124 56,124 48,110 82,110   "/>
		<g>
			<g>
				<path class="st1" d="M59.6,117c0-2.5,1.4-4,3.5-4c2,0,3.5,1.5,3.5,4s-1.4,4.1-3.5,4.1S59.6,119.6,59.6,117z M65.1,117      c0-1.8-0.8-2.8-2-2.8c-1.2,0-2,1.1-2,2.8c0,1.8,0.8,2.9,2,2.9C64.3,119.9,65.1,118.8,65.1,117z"/>
				<path class="st1" d="M67.9,113.2h2.5c1.6,0,2.8,0.5,2.8,1.9c0,0.7-0.4,1.5-1.3,1.7l0,0c1.1,0.2,1.8,0.8,1.8,1.9      c0,1.6-1.3,2.3-3,2.3H68v-7.8H67.9z M70.3,116.4c1.1,0,1.6-0.4,1.6-1.2c0-0.7-0.5-1-1.5-1h-1v2.2H70.3z M70.5,119.9      c1.2,0,1.8-0.4,1.8-1.3c0-0.8-0.6-1.2-1.8-1.2h-1.2v2.5H70.5z"/>
				<path class="st1" d="M78.1,113c1,0,1.7,0.5,2.2,1l-0.8,0.9c-0.4-0.4-0.9-0.6-1.5-0.6c-1.3,0-2.2,1.1-2.2,2.8      c0,1.8,0.9,2.9,2.2,2.9c0.7,0,1.2-0.3,1.7-0.8l0.8,0.9c-0.6,0.7-1.5,1.1-2.4,1.1c-2,0-3.6-1.4-3.6-4      C74.5,114.5,76.1,113,78.1,113z"/>
			</g>
		</g>
	</g>
</g>
<g id="limited-tbc">
	<g>
		<polygon class="st3" points="54,106 2,106 2,92 46,92   "/>
		<g>
			<g>
				<path class="st1" d="M6,95.2h1.4v6.7h3.2v1.1H6V95.2z"/>
				<path class="st1" d="M11.8,95.2h1.4v7.8h-1.4V95.2z"/>
				<path class="st1" d="M15,95.2h1.5L18,99l0.5,1.5l0,0L19,99l1.4-3.9H22v7.9h-1.3v-3.6c0-0.7,0.1-1.8,0.2-2.5l0,0l-0.6,1.8      l-1.4,3.6h-0.6l-1.4-3.6l-0.6-1.8l0,0c0.1,0.7,0.2,1.8,0.2,2.5v3.6H15V95.2z"/>
				<path class="st1" d="M23.8,95.2h1.4v7.8h-1.4V95.2z"/>
				<path class="st1" d="M28.6,96.3h-2.3v-1.2h5.9v1.2H30v6.7h-1.4V96.3z"/>
				<path class="st1" d="M33.4,95.2h4.7v1.2h-3.3v2h2.8v1.2h-2.8v2.3h3.4v1.1h-4.8V95.2z"/>
				<path class="st1" d="M39.6,95.2h2.1c2.4,0,3.8,1.3,3.8,3.9s-1.4,4-3.8,4h-2.2v-7.9H39.6z M41.6,101.9c1.6,0,2.5-0.9,2.5-2.8      s-0.9-2.8-2.5-2.8H41v5.6L41.6,101.9z"/>
			</g>
		</g>
	</g>
	<g>
		<polygon class="st5" points="90,106 56,106 48,92 82,92   "/>
		<g>
			<g>
				<path class="st1" d="M61.6,96.3h-2.3v-1.2h5.9v1.2H63v6.7h-1.4V96.3z"/>
				<path class="st1" d="M66.4,95.2h2.5c1.6,0,2.8,0.5,2.8,1.9c0,0.7-0.4,1.5-1.3,1.7l0,0c1.1,0.2,1.8,0.8,1.8,1.9      c0,1.6-1.3,2.3-3,2.3h-2.7v-7.8H66.4z M68.7,98.4c1.1,0,1.6-0.4,1.6-1.2c0-0.7-0.5-1-1.5-1h-1v2.2H68.7z M68.9,101.9      c1.2,0,1.8-0.4,1.8-1.3c0-0.8-0.6-1.2-1.8-1.2h-1.2v2.5H68.9z"/>
				<path class="st1" d="M76.5,95c1,0,1.7,0.5,2.2,1L78,96.9c-0.4-0.4-0.9-0.6-1.5-0.6c-1.3,0-2.2,1.1-2.2,2.8      c0,1.8,0.9,2.9,2.2,2.9c0.7,0,1.2-0.3,1.7-0.8l0.8,0.9c-0.6,0.7-1.5,1.1-2.4,1.1c-2,0-3.6-1.4-3.6-4C72.9,96.5,74.5,95,76.5,95z      "/>
			</g>
		</g>
	</g>
</g>
<g id="limited-bc">
	<g>
		<polygon class="st3" points="54,88 2,88 2,74 46,74   "/>
		<g>
			<g>
				<path class="st1" d="M6,77.2h1.4v6.7h3.2V85H6V77.2z"/>
				<path class="st1" d="M11.8,77.2h1.4V85h-1.4V77.2z"/>
				<path class="st1" d="M15,77.2h1.5L18,81l0.5,1.5l0,0L19,81l1.4-3.9H22V85h-1.3v-3.6c0-0.7,0.1-1.8,0.2-2.5l0,0l-0.6,1.8      l-1.4,3.6h-0.6l-1.4-3.6l-0.6-1.8l0,0c0.1,0.7,0.2,1.8,0.2,2.5V85H15V77.2z"/>
				<path class="st1" d="M23.8,77.2h1.4V85h-1.4V77.2z"/>
				<path class="st1" d="M28.6,78.3h-2.3v-1.2h5.9v1.2H30V85h-1.4V78.3z"/>
				<path class="st1" d="M33.4,77.2h4.7v1.2h-3.3v2h2.8v1.2h-2.8v2.3h3.4V85h-4.8V77.2z"/>
				<path class="st1" d="M39.6,77.2h2.1c2.4,0,3.8,1.3,3.8,3.9c0,2.6-1.4,4-3.8,4h-2.2v-7.9H39.6z M41.6,83.9c1.6,0,2.5-0.9,2.5-2.8      c0-1.9-0.9-2.8-2.5-2.8H41v5.6H41.6z"/>
			</g>
		</g>
	</g>
	<g>
		<polygon class="st6" points="82,88 56,88 48,74 74,74   "/>
		<g>
			<g>
				<path class="st1" d="M60,77.2h2.5c1.6,0,2.8,0.5,2.8,1.9c0,0.7-0.4,1.5-1.3,1.7l0,0c1.1,0.2,1.8,0.8,1.8,1.9      c0,1.6-1.3,2.3-3,2.3H60V77.2z M62.4,80.4c1.1,0,1.6-0.4,1.6-1.2c0-0.7-0.5-1-1.5-1h-1v2.2H62.4z M62.5,83.9      c1.2,0,1.8-0.4,1.8-1.3c0-0.8-0.6-1.2-1.8-1.2h-1.2v2.5L62.5,83.9z"/>
				<path class="st1" d="M70.2,77c1,0,1.7,0.5,2.2,1l-0.8,0.9c-0.4-0.4-0.9-0.6-1.5-0.6c-1.3,0-2.2,1.1-2.2,2.8      c0,1.8,0.9,2.9,2.2,2.9c0.7,0,1.2-0.3,1.7-0.8l0.8,0.9c-0.6,0.7-1.5,1.1-2.4,1.1c-2,0-3.6-1.4-3.6-4C66.5,78.5,68.2,77,70.2,77z      "/>
			</g>
		</g>
	</g>
</g>
<g id="limited">
	<polygon class="st3" points="54,70 2,70 2,56 46,56  "/>
	<g>
		<g>
			<path class="st1" d="M6,59.2h1.4v6.7h3.2V67H6V59.2z"/>
			<path class="st1" d="M11.8,59.2h1.4V67h-1.4V59.2z"/>
			<path class="st1" d="M15,59.2h1.5L18,63l0.5,1.5l0,0L19,63l1.4-3.9H22V67h-1.3v-3.6c0-0.7,0.1-1.8,0.2-2.5l0,0l-0.6,1.8l-1.4,3.6     h-0.6l-1.4-3.6l-0.6-1.8l0,0c0.1,0.7,0.2,1.8,0.2,2.5V67H15V59.2z"/>
			<path class="st1" d="M23.8,59.2h1.4V67h-1.4V59.2z"/>
			<path class="st1" d="M28.6,60.3h-2.3v-1.2h5.9v1.2H30V67h-1.4V60.3z"/>
			<path class="st1" d="M33.4,59.2h4.7v1.2h-3.3v2h2.8v1.2h-2.8v2.3h3.4V67h-4.8V59.2z"/>
			<path class="st1" d="M39.6,59.2h2.1c2.4,0,3.8,1.3,3.8,3.9c0,2.6-1.4,4-3.8,4h-2.2v-7.9H39.6z M41.6,65.9c1.6,0,2.5-0.9,2.5-2.8     c0-1.9-0.9-2.8-2.5-2.8H41v5.6H41.6z"/>
		</g>
	</g>
</g>
<g id="obc">
	<polygon class="st0" points="36,52 2,52 2,38 28,38  "/>
	<g>
		<g>
			<path class="st1" d="M5.6,45c0-2.5,1.4-4,3.5-4c2,0,3.5,1.5,3.5,4s-1.4,4.1-3.5,4.1S5.6,47.6,5.6,45z M11.1,45     c0-1.8-0.8-2.8-2-2.8s-2,1.1-2,2.8c0,1.8,0.8,2.9,2,2.9S11.1,46.8,11.1,45z"/>
			<path class="st1" d="M13.9,41.2h2.5c1.6,0,2.8,0.5,2.8,1.9c0,0.7-0.4,1.5-1.3,1.7l0,0c1.1,0.2,1.8,0.8,1.8,1.9     c0,1.6-1.3,2.3-3,2.3H14L13.9,41.2L13.9,41.2z M16.3,44.4c1.1,0,1.6-0.4,1.6-1.2c0-0.7-0.5-1-1.5-1h-1v2.2H16.3z M16.5,47.9     c1.2,0,1.8-0.4,1.8-1.3c0-0.8-0.6-1.2-1.8-1.2h-1.2v2.5H16.5z"/>
			<path class="st1" d="M24.1,41c1,0,1.7,0.5,2.2,1l-0.8,0.9c-0.4-0.4-0.9-0.6-1.5-0.6c-1.3,0-2.2,1.1-2.2,2.8     c0,1.8,0.9,2.9,2.2,2.9c0.7,0,1.2-0.3,1.7-0.8l0.8,0.9c-0.6,0.7-1.5,1.1-2.4,1.1c-2,0-3.6-1.4-3.6-4C20.5,42.5,22.1,41,24.1,41z"/>
		</g>
	</g>
</g>
<g id="tbc">
	<polygon class="st5" points="36,34 2,34 2,20 28,20  "/>
	<g>
		<g>
			<path class="st1" d="M7.6,24.3H5.3v-1.2h5.9v1.2H9V31H7.6V24.3z"/>
			<path class="st1" d="M12.4,23.2h2.5c1.6,0,2.8,0.5,2.8,1.9c0,0.7-0.4,1.5-1.3,1.7l0,0c1.1,0.2,1.8,0.8,1.8,1.9     c0,1.6-1.3,2.3-3,2.3h-2.7L12.4,23.2L12.4,23.2z M14.7,26.4c1.1,0,1.6-0.4,1.6-1.2c0-0.7-0.5-1-1.5-1h-1v2.2H14.7z M14.9,29.9     c1.2,0,1.8-0.4,1.8-1.3c0-0.8-0.6-1.2-1.8-1.2h-1.2v2.5H14.9z"/>
			<path class="st1" d="M22.5,23c1,0,1.7,0.5,2.2,1L24,24.9c-0.4-0.4-0.9-0.6-1.5-0.6c-1.3,0-2.2,1.1-2.2,2.8c0,1.8,0.9,2.9,2.2,2.9     c0.7,0,1.2-0.3,1.7-0.8l0.8,0.9c-0.6,0.7-1.5,1.1-2.4,1.1c-2,0-3.6-1.4-3.6-4C18.9,24.5,20.5,23,22.5,23z"/>
		</g>
	</g>
</g>
<g id="bc">
	<polygon class="st6" points="28,16 2,16 2,2 20,2  "/>
	<g>
		<g>
			<path class="st1" d="M6,5.2h2.5c1.6,0,2.8,0.5,2.8,1.9c0,0.7-0.4,1.5-1.3,1.7l0,0c1.1,0.2,1.7,0.8,1.7,1.9c0,1.6-1.3,2.3-3,2.3H6     V5.2z M8.4,8.4C9.5,8.4,10,8,10,7.2c0-0.7-0.5-1-1.5-1h-1v2.2H8.4z M8.6,11.9c1.2,0,1.8-0.4,1.8-1.3c0-0.8-0.6-1.2-1.8-1.2H7.4     v2.5H8.6z"/>
			<path class="st1" d="M16.2,5c1,0,1.7,0.5,2.2,1l-0.8,0.9c-0.4-0.4-0.9-0.6-1.5-0.6c-1.3,0-2.2,1.1-2.2,2.8c0,1.8,0.9,2.9,2.2,2.9     c0.7,0,1.2-0.3,1.7-0.8l0.8,0.9c-0.6,0.7-1.5,1.1-2.4,1.1c-2,0-3.6-1.4-3.6-4C12.5,6.5,14.2,5,16.2,5z"/>
		</g>
	</g>
</g>
</svg>