<?xml version="1.0" encoding="utf-8"?>
<!-- Generator: Adobe Illustrator 18.1.1, SVG Export Plug-In . SVG Version: 6.00 Build 0)  -->
<!DOCTYPE svg PUBLIC "-//W3C//DTD SVG 1.1//EN" "http://www.w3.org/Graphics/SVG/1.1/DTD/svg11.dtd">
<svg version="1.1" id="thumbs" xmlns="http://www.w3.org/2000/svg" xmlns:xlink="http://www.w3.org/1999/xlink" x="0px" y="0px"
	 width="32px" height="32px" viewBox="-7 9 56 56" enable-background="new -7 9 56 56" xml:space="preserve">
<polygon id="dislike-on_2_" fill="#D86868" points="34,62 32,59 32,56 33.4,53 26,53 24,49 28,40 39,40 46,43 46,53 41,53 37,58 
	36,62 "/>
<polygon id="dislike" fill="#757575" points="6,62 4,59 4,56 5.4,53 -2,53 -4,49 0,40 11,40 18,43 18,53 13,53 9,58 8,62 "/>
<polygon id="like-on_2_" fill="#02B757" points="35.9,12 38,15 38,18 36.5,21 43.9,21 46,25.1 41.5,34 30.8,34 24,31 24,21 28.9,21 
	32.9,16 33.9,12 "/>
<polygon id="like" fill="#757575" points="7.9,12 10,15 10,18 8.5,21 15.9,21 18,25.1 13.5,34 2.8,34 -4,31 -4,21 0.9,21 4.9,16 
	5.9,12 "/>
</svg>
