<?xml version="1.0" encoding="UTF-8"?>
<!DOCTYPE svg PUBLIC "-//W3C//DTD SVG 1.1//EN" "http://www.w3.org/Graphics/SVG/1.1/DTD/svg11.dtd">
<svg xmlns="http://www.w3.org/2000/svg" version="1.1" width="200px" height="200px" style="shape-rendering:geometricPrecision; text-rendering:geometricPrecision; image-rendering:optimizeQuality; fill-rule:evenodd; clip-rule:evenodd" xmlns:xlink="http://www.w3.org/1999/xlink">
<g><path style="opacity:0.999" fill="#265e73" d="M 91.5,-0.5 C 92.5,-0.5 93.5,-0.5 94.5,-0.5C 94.916,2.58266 95.5826,5.58266 96.5,8.5C 96.2155,10.4147 96.5489,12.0813 97.5,13.5C 97.5,14.8333 97.5,16.1667 97.5,17.5C 97.5,18.1667 97.8333,18.5 98.5,18.5C 98.9504,23.2016 99.617,27.8683 100.5,32.5C 100.7,35.6296 101.366,38.6296 102.5,41.5C 103.5,47.5011 104.5,53.5011 105.5,59.5C 106.04,62.8647 106.706,66.198 107.5,69.5C 110.927,90.157 114.26,110.824 117.5,131.5C 125.102,129.857 132.102,126.857 138.5,122.5C 140.099,122.768 141.432,122.434 142.5,121.5C 145.443,121.02 148.11,120.02 150.5,118.5C 151.959,118.567 153.292,118.234 154.5,117.5C 161.579,114.363 168.912,112.029 176.5,110.5C 175.775,122.863 174.775,135.196 173.5,147.5C 172.539,149.265 172.205,151.265 172.5,153.5C 171.07,156.989 170.236,160.656 170,164.5C 167.616,166.879 166.116,169.713 165.5,173C 155.635,175.2 145.968,177.7 136.5,180.5C 134.265,180.205 132.265,180.539 130.5,181.5C 122.831,182.835 115.164,184.168 107.5,185.5C 98.2907,187.055 89.2907,189.055 80.5,191.5C 75.1631,191.975 69.9964,192.975 65,194.5C 62.9919,194.693 61.4919,194.026 60.5,192.5C 60.7709,190.62 60.1042,189.287 58.5,188.5C 58.7373,187.209 58.404,186.209 57.5,185.5C 56.8333,181.833 56.1667,178.167 55.5,174.5C 54.9459,171.254 53.9459,168.254 52.5,165.5C 51.596,164.791 51.2627,163.791 51.5,162.5C 51.2766,158.838 50.2766,155.505 48.5,152.5C 47.1522,145.405 45.4855,138.405 43.5,131.5C 43.0951,128.285 42.0951,125.285 40.5,122.5C 37.2546,113.306 34.2546,103.973 31.5,94.5C 32.0967,94.2648 32.4301,93.7648 32.5,93C 28.3974,79.0715 24.3974,65.2382 20.5,51.5C 20.1667,51.5 19.8333,51.5 19.5,51.5C 19.0111,44.543 17.6778,37.8764 15.5,31.5C 15.4355,27.3822 14.7688,23.3822 13.5,19.5C 13.4208,16.342 14.4208,13.6754 16.5,11.5C 19.3303,11.0372 21.997,10.3705 24.5,9.5C 30.4065,9.13661 36.0732,8.13661 41.5,6.5C 42.6948,6.67754 43.8615,7.01087 45,7.5C 58.8862,4.76407 72.8862,2.76407 87,1.5C 88.9855,1.43135 90.4855,0.764682 91.5,-0.5 Z"/></g>
<g><path style="opacity:0.642" fill="#60afcc" d="M 82.5,-0.5 C 85.5,-0.5 88.5,-0.5 91.5,-0.5C 90.4855,0.764682 88.9855,1.43135 87,1.5C 72.8862,2.76407 58.8862,4.76407 45,7.5C 43.8615,7.01087 42.6948,6.67754 41.5,6.5C 47.4696,5.11161 53.4696,3.61161 59.5,2C 67.3124,1.12276 74.9791,0.289427 82.5,-0.5 Z"/></g>
<g><path style="opacity:0.941" fill="#004383" d="M 96.5,8.5 C 129.4,10.7078 162.233,12.3745 195,13.5C 193.434,74.1863 190.767,134.853 187,195.5C 151.467,195.696 115.967,194.362 80.5,191.5C 89.2907,189.055 98.2907,187.055 107.5,185.5C 132.323,187.555 157.323,189.222 182.5,190.5C 183.835,132.794 186.168,75.1275 189.5,17.5C 158.84,16.0457 128.173,14.7124 97.5,13.5C 96.5489,12.0813 96.2155,10.4147 96.5,8.5 Z"/></g>
<g><path style="opacity:1" fill="#268ee3" d="M 24.5,9.5 C 21.997,10.3705 19.3303,11.0372 16.5,11.5C 16.5,10.5 16.5,9.5 16.5,8.5C 19.2788,8.27863 21.9455,8.61197 24.5,9.5 Z"/></g>
<g><path style="opacity:1" fill="#2d9dfa" d="M 97.5,13.5 C 128.173,14.7124 158.84,16.0457 189.5,17.5C 186.168,75.1275 183.835,132.794 182.5,190.5C 157.323,189.222 132.323,187.555 107.5,185.5C 115.164,184.168 122.831,182.835 130.5,181.5C 144.433,182.443 158.433,183.276 172.5,184C 173.646,184.645 174.646,185.478 175.5,186.5C 178.712,132.209 181.045,77.8757 182.5,23.5C 183.552,23.6495 184.552,23.4828 185.5,23C 183.006,21.5707 180.34,21.404 177.5,22.5C 150.871,20.2307 124.204,18.564 97.5,17.5C 97.5,16.1667 97.5,14.8333 97.5,13.5 Z"/></g>
<g><path style="opacity:1" fill="#2c9efc" d="M 98.5,18.5 C 125.765,21.0254 153.099,22.6921 180.5,23.5C 179.083,65.8442 177.416,108.178 175.5,150.5C 174.575,149.643 173.908,148.643 173.5,147.5C 174.775,135.196 175.775,122.863 176.5,110.5C 168.912,112.029 161.579,114.363 154.5,117.5C 136.736,88.9612 118.736,60.6279 100.5,32.5C 99.617,27.8683 98.9504,23.2016 98.5,18.5 Z"/></g>
<g><path style="opacity:0.922" fill="#014483" d="M 41.5,6.5 C 36.0732,8.13661 30.4065,9.13661 24.5,9.5C 21.9455,8.61197 19.2788,8.27863 16.5,8.5C 16.5,9.5 16.5,10.5 16.5,11.5C 14.4208,13.6754 13.4208,16.342 13.5,19.5C 14.7688,23.3822 15.4355,27.3822 15.5,31.5C 14.8321,52.1994 13.8321,72.8661 12.5,93.5C 10.4131,92.4154 9.07978,90.7488 8.5,88.5C 10.0324,61.5216 11.5324,34.5216 13,7.5C 16.74,6.20613 20.74,5.53946 25,5.5C 30.5206,5.64567 36.0206,5.979 41.5,6.5 Z"/></g>
<g><path style="opacity:1" fill="#28a0ce" d="M 114.5,135.5 C 112.768,138.112 111.268,137.779 110,134.5C 108.344,123.207 107.011,111.874 106,100.5C 104.538,98.8518 102.705,97.8518 100.5,97.5C 98.8264,85.9078 97.6597,74.2412 97,62.5C 93.3701,47.7352 91.3701,32.7352 91,17.5C 90.6676,14.4937 89.8343,11.6604 88.5,9C 68.1467,10.0038 48.3134,13.8371 29,20.5C 28.3333,24.5 28.3333,28.5 29,32.5C 33.4594,49.054 37.626,65.7207 41.5,82.5C 41.8882,86.552 42.5549,90.552 43.5,94.5C 42.1502,95.9501 40.4835,96.6168 38.5,96.5C 33.0095,76.8708 27.6761,57.2041 22.5,37.5C 20.9168,29.6847 21.2502,22.0181 23.5,14.5C 46.0509,11.6406 68.7175,8.64064 91.5,5.5C 98.7731,49.1533 106.44,92.4867 114.5,135.5 Z"/></g>
<g><path style="opacity:1" fill="#b6d5e1" d="M 23.5,14.5 C 21.2502,22.0181 20.9168,29.6847 22.5,37.5C 19.2848,30.9418 18.1182,23.9418 19,16.5C 20.1096,14.9632 21.6096,14.2965 23.5,14.5 Z"/></g>
<g><path style="opacity:1" fill="#2a9bf8" d="M 15.5,31.5 C 17.6778,37.8764 19.0111,44.543 19.5,51.5C 18.5167,67.1504 17.85,82.8171 17.5,98.5C 15.5,97.1667 13.8333,95.5 12.5,93.5C 13.8321,72.8661 14.8321,52.1994 15.5,31.5 Z"/></g>
<g><path style="opacity:1" fill="#a2d3fa" d="M 100.5,32.5 C 118.736,60.6279 136.736,88.9612 154.5,117.5C 153.292,118.234 151.959,118.567 150.5,118.5C 134.747,92.6572 118.747,66.9906 102.5,41.5C 101.366,38.6296 100.7,35.6296 100.5,32.5 Z"/></g>
<g><path style="opacity:1" fill="#a2d3ff" d="M 97.5,17.5 C 124.204,18.564 150.871,20.2307 177.5,22.5C 180.34,21.404 183.006,21.5707 185.5,23C 184.552,23.4828 183.552,23.6495 182.5,23.5C 181.045,77.8757 178.712,132.209 175.5,186.5C 174.646,185.478 173.646,184.645 172.5,184C 158.433,183.276 144.433,182.443 130.5,181.5C 132.265,180.539 134.265,180.205 136.5,180.5C 149.152,181.416 161.818,182.082 174.5,182.5C 174.459,174.819 174.793,167.152 175.5,159.5C 175.167,157.167 174.833,154.833 174.5,152.5C 173.817,152.863 173.15,153.196 172.5,153.5C 172.205,151.265 172.539,149.265 173.5,147.5C 173.908,148.643 174.575,149.643 175.5,150.5C 177.416,108.178 179.083,65.8442 180.5,23.5C 153.099,22.6921 125.765,21.0254 98.5,18.5C 97.8333,18.5 97.5,18.1667 97.5,17.5 Z"/></g>
<g><path style="opacity:1" fill="#2d9bf6" d="M 20.5,56.5 C 24.1007,69.077 27.7674,81.7437 31.5,94.5C 34.2546,103.973 37.2546,113.306 40.5,122.5C 32.798,115.799 25.798,108.466 19.5,100.5C 20.1187,85.8414 20.4521,71.1747 20.5,56.5 Z"/></g>
<g><path style="opacity:1" fill="#a2d1f7" d="M 105.5,59.5 C 118.322,79.8002 130.655,100.467 142.5,121.5C 141.432,122.434 140.099,122.768 138.5,122.5C 128.558,104.569 118.224,86.9021 107.5,69.5C 106.706,66.198 106.04,62.8647 105.5,59.5 Z"/></g>
<g><path style="opacity:1" fill="#2d92e6" d="M 102.5,41.5 C 118.747,66.9906 134.747,92.6572 150.5,118.5C 148.11,120.02 145.443,121.02 142.5,121.5C 130.655,100.467 118.322,79.8002 105.5,59.5C 104.5,53.5011 103.5,47.5011 102.5,41.5 Z"/></g>
<g><path style="opacity:1" fill="#a2d3fe" d="M 19.5,51.5 C 19.8333,51.5 20.1667,51.5 20.5,51.5C 20.5,53.1667 20.5,54.8333 20.5,56.5C 20.4521,71.1747 20.1187,85.8414 19.5,100.5C 18.5,100.167 17.8333,99.5 17.5,98.5C 17.85,82.8171 18.5167,67.1504 19.5,51.5 Z"/></g>
<g><path style="opacity:1" fill="#153749" d="M 20.5,51.5 C 24.3974,65.2382 28.3974,79.0715 32.5,93C 32.4301,93.7648 32.0967,94.2648 31.5,94.5C 27.7674,81.7437 24.1007,69.077 20.5,56.5C 20.5,54.8333 20.5,53.1667 20.5,51.5 Z"/></g>
<g><path style="opacity:0.952" fill="#373a3f" d="M 8.5,88.5 C 9.07978,90.7488 10.4131,92.4154 12.5,93.5C 13.8333,95.5 15.5,97.1667 17.5,98.5C 17.8333,99.5 18.5,100.167 19.5,100.5C 25.798,108.466 32.798,115.799 40.5,122.5C 42.0951,125.285 43.0951,128.285 43.5,131.5C 32.4986,120.664 21.9986,109.331 12,97.5C 11.3292,96.7476 10.4959,96.4142 9.5,96.5C 7.97071,91.8514 6.63738,91.6847 5.5,96C 7.64379,112.339 9.97712,128.506 12.5,144.5C 14.0247,160.698 16.0247,176.698 18.5,192.5C 18.147,194.635 18.9803,195.968 21,196.5C 33.4741,193.639 45.9741,190.972 58.5,188.5C 60.1042,189.287 60.7709,190.62 60.5,192.5C 59.8501,192.196 59.1835,191.863 58.5,191.5C 45.7388,194.318 33.0721,196.984 20.5,199.5C 19.1667,199.5 17.8333,199.5 16.5,199.5C 15.9254,195.477 15.2588,191.477 14.5,187.5C 14.81,184.287 14.4767,181.287 13.5,178.5C 12.6871,169.81 11.6871,161.143 10.5,152.5C 9.72747,144.602 8.39414,136.935 6.5,129.5C 4.8002,114.868 3.46687,100.202 2.5,85.5C 4.94678,85.615 6.94678,86.615 8.5,88.5 Z"/></g>
<g><path style="opacity:1" fill="#2688d7" d="M 107.5,69.5 C 118.224,86.9021 128.558,104.569 138.5,122.5C 132.102,126.857 125.102,129.857 117.5,131.5C 114.26,110.824 110.927,90.157 107.5,69.5 Z"/></g>
<g><path style="opacity:1" fill="#393e44" d="M 48.5,152.5 C 50.2766,155.505 51.2766,158.838 51.5,162.5C 40.8636,149.019 30.3636,135.352 20,121.5C 22.9282,139.485 26.0949,157.485 29.5,175.5C 37.5795,173.98 45.5795,172.147 53.5,170C 52.6198,168.644 52.2865,167.144 52.5,165.5C 53.9459,168.254 54.9459,171.254 55.5,174.5C 54.7354,174.077 53.9021,173.743 53,173.5C 45.0348,175.658 37.0348,177.658 29,179.5C 28.0546,179.095 27.3879,178.428 27,177.5C 22.6071,157.097 18.7738,136.597 15.5,116C 15.8333,114.833 16.1667,113.667 16.5,112.5C 27.4731,125.767 37.9731,139.434 48,153.5C 48.3988,153.272 48.5654,152.938 48.5,152.5 Z"/></g>
<g><path style="opacity:1" fill="#b0b0b0" d="M 9.5,96.5 C 10.5107,100.199 10.5107,103.866 9.5,107.5C 10.0253,108.192 10.6919,108.692 11.5,109C 10.6433,109.689 9.97665,110.522 9.5,111.5C 10.7515,112.631 11.7515,113.964 12.5,115.5C 11.4529,117.056 10.7863,118.723 10.5,120.5C 11.5,120.5 12.5,120.5 13.5,120.5C 13.7662,124.571 13.4328,128.571 12.5,132.5C 14.1849,135.758 15.1849,139.258 15.5,143C 15.1058,145.28 14.1058,145.78 12.5,144.5C 9.97712,128.506 7.64379,112.339 5.5,96C 6.63738,91.6847 7.97071,91.8514 9.5,96.5 Z"/></g>
<g><path style="opacity:1" fill="#2e9efa" d="M 51.5,162.5 C 51.2627,163.791 51.596,164.791 52.5,165.5C 52.2865,167.144 52.6198,168.644 53.5,170C 45.5795,172.147 37.5795,173.98 29.5,175.5C 26.0949,157.485 22.9282,139.485 20,121.5C 30.3636,135.352 40.8636,149.019 51.5,162.5 Z"/></g>
<g><path style="opacity:1" fill="#929293" d="M 9.5,96.5 C 10.4959,96.4142 11.3292,96.7476 12,97.5C 21.9986,109.331 32.4986,120.664 43.5,131.5C 45.4855,138.405 47.1522,145.405 48.5,152.5C 48.5654,152.938 48.3988,153.272 48,153.5C 37.9731,139.434 27.4731,125.767 16.5,112.5C 16.1667,113.667 15.8333,114.833 15.5,116C 18.7738,136.597 22.6071,157.097 27,177.5C 27.3879,178.428 28.0546,179.095 29,179.5C 37.0348,177.658 45.0348,175.658 53,173.5C 53.9021,173.743 54.7354,174.077 55.5,174.5C 56.1667,178.167 56.8333,181.833 57.5,185.5C 44.836,186.996 32.5027,189.663 20.5,193.5C 19.8869,192.02 19.5536,190.687 19.5,189.5C 18.6143,190.325 18.281,191.325 18.5,192.5C 16.0247,176.698 14.0247,160.698 12.5,144.5C 14.1058,145.78 15.1058,145.28 15.5,143C 15.1849,139.258 14.1849,135.758 12.5,132.5C 13.4328,128.571 13.7662,124.571 13.5,120.5C 12.5,120.5 11.5,120.5 10.5,120.5C 10.7863,118.723 11.4529,117.056 12.5,115.5C 11.7515,113.964 10.7515,112.631 9.5,111.5C 9.97665,110.522 10.6433,109.689 11.5,109C 10.6919,108.692 10.0253,108.192 9.5,107.5C 10.5107,103.866 10.5107,100.199 9.5,96.5 Z"/></g>
<g><path style="opacity:0.909" fill="#034482" d="M 6.5,129.5 C 8.39414,136.935 9.72747,144.602 10.5,152.5C 9.48919,161.992 8.82252,171.658 8.5,181.5C 10.1667,181.5 11.8333,181.5 13.5,181.5C 13.5,180.5 13.5,179.5 13.5,178.5C 14.4767,181.287 14.81,184.287 14.5,187.5C 11.1667,187.5 7.83333,187.5 4.5,187.5C 5.59446,168.188 6.26113,148.855 6.5,129.5 Z"/></g>
<g><path style="opacity:1" fill="#2f9ffc" d="M 136.5,180.5 C 145.968,177.7 155.635,175.2 165.5,173C 166.116,169.713 167.616,166.879 170,164.5C 170.236,160.656 171.07,156.989 172.5,153.5C 173.15,153.196 173.817,152.863 174.5,152.5C 174.833,154.833 175.167,157.167 175.5,159.5C 174.793,167.152 174.459,174.819 174.5,182.5C 161.818,182.082 149.152,181.416 136.5,180.5 Z"/></g>
<g><path style="opacity:1" fill="#3398ef" d="M 10.5,152.5 C 11.6871,161.143 12.6871,169.81 13.5,178.5C 13.5,179.5 13.5,180.5 13.5,181.5C 11.8333,181.5 10.1667,181.5 8.5,181.5C 8.82252,171.658 9.48919,161.992 10.5,152.5 Z"/></g>
<g><path style="opacity:1" fill="#1981a7" d="M 41.5,82.5 C 48.9819,109.753 56.4819,137.086 64,164.5C 65.6792,168.84 67.3459,173.173 69,177.5C 70.2547,178.211 71.4214,179.044 72.5,180C 83.8864,178.658 95.2197,176.658 106.5,174C 123.006,168.076 139.673,162.742 156.5,158C 157.333,157.167 158.167,156.333 159,155.5C 161.081,145.603 162.248,135.603 162.5,125.5C 160.801,125.34 159.134,125.506 157.5,126C 142.369,133.567 127.036,140.567 111.5,147C 109.553,147.991 107.553,148.325 105.5,148C 103.21,131.269 101.544,114.435 100.5,97.5C 102.705,97.8518 104.538,98.8518 106,100.5C 107.011,111.874 108.344,123.207 110,134.5C 111.268,137.779 112.768,138.112 114.5,135.5C 116.068,136.473 117.735,136.64 119.5,136C 136.304,129.761 152.97,123.261 169.5,116.5C 167.95,129.348 166.783,142.348 166,155.5C 165.356,158.609 164.189,161.443 162.5,164C 142.55,169.654 122.55,174.987 102.5,180C 98.3287,181.203 94.3287,182.703 90.5,184.5C 82.2763,185.454 74.1096,186.787 66,188.5C 65.228,188.355 64.5613,188.022 64,187.5C 55.6504,157.099 47.1504,126.765 38.5,96.5C 40.4835,96.6168 42.1502,95.9501 43.5,94.5C 42.5549,90.552 41.8882,86.552 41.5,82.5 Z"/></g>
<g><path style="opacity:1" fill="#3f778d" d="M 100.5,97.5 C 101.544,114.435 103.21,131.269 105.5,148C 107.553,148.325 109.553,147.991 111.5,147C 127.036,140.567 142.369,133.567 157.5,126C 159.134,125.506 160.801,125.34 162.5,125.5C 162.248,135.603 161.081,145.603 159,155.5C 158.167,156.333 157.333,157.167 156.5,158C 139.673,162.742 123.006,168.076 106.5,174C 95.2197,176.658 83.8864,178.658 72.5,180C 71.4214,179.044 70.2547,178.211 69,177.5C 67.3459,173.173 65.6792,168.84 64,164.5C 56.4819,137.086 48.9819,109.753 41.5,82.5C 37.626,65.7207 33.4594,49.054 29,32.5C 28.3333,28.5 28.3333,24.5 29,20.5C 48.3134,13.8371 68.1467,10.0038 88.5,9C 89.8343,11.6604 90.6676,14.4937 91,17.5C 91.3701,32.7352 93.3701,47.7352 97,62.5C 97.6597,74.2412 98.8264,85.9078 100.5,97.5 Z"/></g>
<g><path style="opacity:1" fill="#ccd9dd" d="M 98.5,115.5 C 99.1667,117.5 99.8333,119.5 100.5,121.5C 101.321,131.203 102.321,140.87 103.5,150.5C 102.069,150.119 101.236,149.119 101,147.5C 100.646,136.784 99.8123,126.117 98.5,115.5 Z"/></g>
<g><path style="opacity:1" fill="#8ca9b4" d="M 156.5,129.5 C 157.568,128.566 158.901,128.232 160.5,128.5C 160.817,132.702 160.483,136.702 159.5,140.5C 159.5,136.833 159.5,133.167 159.5,129.5C 158.5,129.5 157.5,129.5 156.5,129.5 Z"/></g>
<g><path style="opacity:1" fill="#7c9daa" d="M 96.5,89.5 C 99.0735,99.8318 100.407,110.498 100.5,121.5C 99.8333,119.5 99.1667,117.5 98.5,115.5C 97.6443,106.854 96.9776,98.1875 96.5,89.5 Z"/></g>
<g><path style="opacity:1" fill="#bdced4" d="M 93.5,56.5 C 94.29,57.6085 94.79,58.9419 95,60.5C 95.5952,68.1652 96.0952,75.8318 96.5,83.5C 94.7016,74.7369 93.7016,65.7369 93.5,56.5 Z"/></g>
<g><path style="opacity:1" fill="#c6d5da" d="M 88.5,16.5 C 90.3419,29.6964 92.0086,43.0297 93.5,56.5C 92.5902,54.9812 91.7568,53.3146 91,51.5C 89.2396,39.8971 88.4063,28.2304 88.5,16.5 Z"/></g>
<g><path style="opacity:1" fill="#b9cad0" d="M 65.5,13.5 C 57.821,16.344 49.821,18.344 41.5,19.5C 48.9683,15.8672 56.9683,13.8672 65.5,13.5 Z"/></g>
<g><path style="opacity:1" fill="#fcfdfd" d="M 88.5,16.5 C 88.4063,28.2304 89.2396,39.8971 91,51.5C 91.7568,53.3146 92.5902,54.9812 93.5,56.5C 93.7016,65.7369 94.7016,74.7369 96.5,83.5C 96.5,85.5 96.5,87.5 96.5,89.5C 96.9776,98.1875 97.6443,106.854 98.5,115.5C 99.8123,126.117 100.646,136.784 101,147.5C 101.236,149.119 102.069,150.119 103.5,150.5C 105.527,150.662 107.527,150.495 109.5,150C 114.624,147.438 119.957,145.438 125.5,144C 135.225,138.133 145.559,133.3 156.5,129.5C 157.5,129.5 158.5,129.5 159.5,129.5C 159.5,133.167 159.5,136.833 159.5,140.5C 158.755,146.578 156.755,152.078 153.5,157C 134.635,162.039 115.968,167.706 97.5,174C 90.498,175.167 83.498,176.334 76.5,177.5C 74.0741,177.596 71.9074,176.93 70,175.5C 57.9016,134.442 46.735,93.1082 36.5,51.5C 35.8645,50.0337 35.0312,48.7003 34,47.5C 32.2051,39.1997 31.7051,30.8663 32.5,22.5C 35.359,20.949 38.359,19.949 41.5,19.5C 49.821,18.344 57.821,16.344 65.5,13.5C 72.6973,11.5345 80.0307,10.5345 87.5,10.5C 87.3253,12.6208 87.6586,14.6208 88.5,16.5 Z"/></g>
<g><path style="opacity:1" fill="#57a3bf" d="M 169.5,116.5 C 170.725,117.152 171.392,118.319 171.5,120C 169.835,133.481 168.335,146.981 167,160.5C 165.878,162.624 164.378,164.457 162.5,166C 138.851,173.493 114.851,179.66 90.5,184.5C 94.3287,182.703 98.3287,181.203 102.5,180C 122.55,174.987 142.55,169.654 162.5,164C 164.189,161.443 165.356,158.609 166,155.5C 166.783,142.348 167.95,129.348 169.5,116.5 Z"/></g>
<g><path style="opacity:1" fill="#afafb0" d="M 57.5,185.5 C 58.404,186.209 58.7373,187.209 58.5,188.5C 45.9741,190.972 33.4741,193.639 21,196.5C 18.9803,195.968 18.147,194.635 18.5,192.5C 18.281,191.325 18.6143,190.325 19.5,189.5C 19.5536,190.687 19.8869,192.02 20.5,193.5C 32.5027,189.663 44.836,186.996 57.5,185.5 Z"/></g>
</svg>
