<svg xmlns="http://www.w3.org/2000/svg" width="1280" height="1280" viewBox="0 0 1280 1280" version="1.1"><path d="M 366.181 273.565 C 311.434 302.437, 228.958 361.238, 188.538 400.217 L 177.875 410.500 182.554 418 C 215.907 471.458, 325.559 656.597, 376.225 745 C 442.998 861.507, 494.034 962.747, 527.203 1044.500 C 529.435 1050, 531.539 1054.801, 531.880 1055.169 C 532.487 1055.824, 559.122 1058.673, 588 1061.173 C 610.733 1063.140, 656.870 1062.811, 679.273 1060.521 L 698.046 1058.602 707.652 1040.551 C 758.445 945.106, 808.758 840.414, 853.295 737.500 C 884.276 665.910, 929.846 551.890, 959.206 472.500 C 980.167 415.824, 1011 326.831, 1011 323.009 C 1011 320.073, 946.120 299.690, 894.603 286.441 C 869.910 280.090, 849.357 275.255, 848.931 275.697 C 848.506 276.139, 844.935 284.586, 840.996 294.468 C 803.932 387.469, 760.980 482.024, 732.347 533.648 C 724.201 548.335, 595.882 757.893, 595 757.949 C 594.509 757.980, 561.411 680.008, 491.236 513.500 C 422.676 350.826, 413.813 330.875, 397.458 302.389 C 393.726 295.890, 387.913 285.295, 384.539 278.845 L 378.406 267.118 366.181 273.565" stroke="none" fill="#fbfbfb" fill-rule="evenodd"/><path d="M 362 210.492 C 352.302 213.090, 319.784 230.672, 291.231 248.754 C 223.167 291.858, 149.738 349.724, 130.957 375.058 C 125.537 382.369, 120.051 394.156, 117.518 403.931 C 115.539 411.569, 115.522 429.745, 117.487 437.289 C 119.536 445.156, 123.879 453.451, 138.633 477.679 C 211.697 597.661, 311.178 767.089, 353.721 844 C 400.569 928.693, 439.843 1008.629, 465.496 1071.500 C 474.241 1092.932, 478.525 1100.565, 485.981 1108 C 492.742 1114.742, 500.800 1119.655, 510.725 1123.088 C 514.514 1124.399, 524.581 1125.908, 540 1127.477 C 579.751 1131.521, 597 1132.266, 638.185 1131.715 C 677.045 1131.196, 697.089 1129.735, 709.257 1126.536 C 721.380 1123.348, 733.757 1115.217, 740.888 1105.756 C 749.201 1094.725, 812.833 970.099, 847.729 896.500 C 893.510 799.946, 940.727 688.564, 989.532 562 C 1021.907 478.042, 1065.496 354.270, 1069.032 336.257 C 1070.815 327.173, 1069.790 310.140, 1066.978 302.142 C 1064.159 294.122, 1056.164 282.088, 1050.658 277.576 C 1041.050 269.703, 1034.957 267.089, 996.777 254.465 C 968.411 245.086, 946.893 238.814, 910.260 229.249 L 861.500 216.516 849.500 216.508 C 834.817 216.498, 827.514 218.667, 816.113 226.421 C 801.788 236.164, 796.099 245.334, 781.008 283 C 745.999 370.381, 708.014 454.140, 681.340 502.774 C 674.047 516.073, 607.288 625.921, 605.057 628.295 C 604.645 628.733, 599.795 618.383, 594.278 605.295 C 588.761 592.208, 571.421 551.125, 555.745 514 C 540.069 476.875, 526.128 443.800, 524.765 440.500 C 515.884 418.998, 494.504 368.667, 485.473 348 C 471.359 315.703, 461.327 295.009, 450.322 275.500 C 445.359 266.700, 438.542 254.100, 435.175 247.500 C 427.337 232.138, 422.085 225.539, 412.697 219.260 C 401.525 211.788, 395.021 209.823, 380 209.384 C 371.126 209.124, 365.905 209.445, 362 210.492 M 366.181 273.565 C 311.434 302.437, 228.958 361.238, 188.538 400.217 L 177.875 410.500 182.554 418 C 215.907 471.458, 325.559 656.597, 376.225 745 C 442.998 861.507, 494.034 962.747, 527.203 1044.500 C 529.435 1050, 531.539 1054.801, 531.880 1055.169 C 532.487 1055.824, 559.122 1058.673, 588 1061.173 C 610.733 1063.140, 656.870 1062.811, 679.273 1060.521 L 698.046 1058.602 707.652 1040.551 C 758.445 945.106, 808.758 840.414, 853.295 737.500 C 884.276 665.910, 929.846 551.890, 959.206 472.500 C 980.167 415.824, 1011 326.831, 1011 323.009 C 1011 320.073, 946.120 299.690, 894.603 286.441 C 869.910 280.090, 849.357 275.255, 848.931 275.697 C 848.506 276.139, 844.935 284.586, 840.996 294.468 C 803.932 387.469, 760.980 482.024, 732.347 533.648 C 724.201 548.335, 595.882 757.893, 595 757.949 C 594.509 757.980, 561.411 680.008, 491.236 513.500 C 422.676 350.826, 413.813 330.875, 397.458 302.389 C 393.726 295.890, 387.913 285.295, 384.539 278.845 L 378.406 267.118 366.181 273.565" stroke="none" fill="#7f04d3" fill-rule="evenodd"/></svg>