<?xml version="1.0" encoding="utf-8"?>
<!-- Generator: Adobe Illustrator 20.1.0, SVG Export Plug-In . SVG Version: 6.00 Build 0)  -->
<svg version="1.1" id="Layer_1" xmlns="http://www.w3.org/2000/svg" xmlns:xlink="http://www.w3.org/1999/xlink" x="0px" y="0px"
	 width="104px" height="168px" viewBox="0 0 104 168" style="enable-background:new 0 0 104 168;" xml:space="preserve" preserveAspectRatio="none">
<style type="text/css">
	.st0{fill:#F68802;}
	.st1{fill:#191919;}
	.st2{fill:#F6B702;}
	.st3{fill:#00A2FF;}
	.st4{fill:#FFFFFF;}
</style>
<g id="label">
</g>
<g id="BC">
	<g id="OBC-square">
		<g>
			<g>
				<path class="st0" d="M19,146c-0.1,0-0.2,0-0.4-0.1l-4.6-1.8L9.4,146c-0.5,0.2-1.1,0-1.3-0.6s0-1.1,0.6-1.3l5-2
					c0.2-0.1,0.5-0.1,0.7,0l5,2c0.5,0.2,0.8,0.8,0.6,1.3C19.8,145.8,19.4,146,19,146z"/>
			</g>
			<g>
				<path class="st0" d="M19,150c-0.1,0-0.2,0-0.4-0.1l-4.6-1.8L9.4,150c-0.5,0.2-1.1,0-1.3-0.6s0-1.1,0.6-1.3l5-2
					c0.2-0.1,0.5-0.1,0.7,0l5,2c0.5,0.2,0.8,0.8,0.6,1.3C19.8,149.8,19.4,150,19,150z"/>
			</g>
			<g>
				<path class="st0" d="M19,154c-0.1,0-0.2,0-0.4-0.1l-4.6-1.8L9.4,154c-0.5,0.2-1.1,0-1.3-0.6s0-1.1,0.6-1.3l5-2
					c0.2-0.1,0.5-0.1,0.7,0l5,2c0.5,0.2,0.8,0.8,0.6,1.3C19.8,153.8,19.4,154,19,154z"/>
			</g>
			<path class="st1" d="M25.4,154.1l-1.4-0.7V147c0-0.3-0.1-0.5-0.3-0.7l-1-1c-0.4-0.4-1-0.4-1.4,0s-0.4,1,0,1.4l0.7,0.7v6.6
				c0,0.4,0.2,0.7,0.6,0.9l1.4,0.7v0.4H4v-0.4l1.4-0.7c0.4-0.2,0.6-0.5,0.6-0.9v-6.6l0.7-0.7c0.4-0.4,0.4-1,0-1.4s-1-0.4-1.4,0l-1,1
				C4.1,146.5,4,146.7,4,147v6.4l-1.4,0.7C2.2,154.3,2,154.6,2,155v2c0,0.6,0.4,1,1,1h1.1c0.5,4.7,4.5,8,9.9,8s9.4-3.3,9.9-8H25
				c0.6,0,1-0.4,1-1v-2C26,154.6,25.8,154.3,25.4,154.1z M14,164c-4.3,0-7.4-2.4-7.9-6h15.8C21.4,161.6,18.3,164,14,164z"/>
		</g>
	</g>
	<g id="TBC-square">
		<g>
			<g>
				<path class="st2" d="M19,118c-0.1,0-0.2,0-0.4-0.1l-4.6-1.8L9.4,118c-0.5,0.2-1.1,0-1.3-0.6c-0.2-0.5,0-1.1,0.6-1.3l5-2
					c0.2-0.1,0.5-0.1,0.7,0l5,2c0.5,0.2,0.8,0.8,0.6,1.3C19.8,117.8,19.4,118,19,118z"/>
			</g>
			<g>
				<path class="st2" d="M19,122c-0.1,0-0.2,0-0.4-0.1l-4.6-1.8L9.4,122c-0.5,0.2-1.1,0-1.3-0.6c-0.2-0.5,0-1.1,0.6-1.3l5-2
					c0.2-0.1,0.5-0.1,0.7,0l5,2c0.5,0.2,0.8,0.8,0.6,1.3C19.8,121.8,19.4,122,19,122z"/>
			</g>
			<path class="st2" d="M25.4,126.1l-1.4-0.7V119c0-0.3-0.1-0.5-0.3-0.7l-1-1c-0.4-0.4-1-0.4-1.4,0s-0.4,1,0,1.4l0.7,0.7v6.6
				c0,0.4,0.2,0.7,0.6,0.9l1.4,0.7v0.4H4v-0.4l1.4-0.7c0.4-0.2,0.6-0.5,0.6-0.9v-6.6l0.7-0.7c0.4-0.4,0.4-1,0-1.4s-1-0.4-1.4,0l-1,1
				C4.1,118.5,4,118.7,4,119v6.4l-1.4,0.7C2.2,126.3,2,126.6,2,127v2c0,0.6,0.4,1,1,1h1.1c0.5,4.7,4.5,8,9.9,8s9.4-3.3,9.9-8H25
				c0.6,0,1-0.4,1-1v-2C26,126.6,25.8,126.3,25.4,126.1z M14,136c-4.3,0-7.4-2.4-7.9-6h15.8C21.4,133.6,18.3,136,14,136z"/>
		</g>
	</g>
	<g id="BC-square">
		<g>
			<g>
				<path class="st3" d="M19,90.1c-0.1,0-0.2,0-0.4-0.1L14,88.2L9.4,90c-0.5,0.2-1.1,0-1.3-0.6s0-1.1,0.6-1.3l5-2
					c0.2-0.1,0.5-0.1,0.7,0l5,2c0.5,0.2,0.8,0.8,0.6,1.3C19.8,89.9,19.4,90.1,19,90.1z"/>
			</g>
			<path class="st3" d="M25.4,98.1L24,97.4V91c0-0.3-0.1-0.5-0.3-0.7l-1-1c-0.4-0.4-1-0.4-1.4,0s-0.4,1,0,1.4l0.7,0.7V98
				c0,0.4,0.2,0.7,0.6,0.9l1.4,0.7v0.4H4v-0.4l1.4-0.7C5.8,98.7,6,98.4,6,98v-6.6l0.7-0.7c0.4-0.4,0.4-1,0-1.4s-1-0.4-1.4,0l-1,1
				C4.1,90.6,4,90.8,4,91.1v6.4l-1.4,0.7C2.2,98.3,2,98.6,2,99v2c0,0.6,0.4,1,1,1h1.1c0.5,4.7,4.5,8,9.9,8s9.4-3.3,9.9-8H25
				c0.6,0,1-0.4,1-1v-2C26,98.6,25.8,98.3,25.4,98.1z M14,108c-4.3,0-7.4-2.4-7.9-6h15.8C21.4,105.6,18.3,108,14,108z"/>
		</g>
	</g>
	<g id="OBC-on">
		<g>
			<path class="st1" d="M76,78h25c0.6,0,1-0.4,1-1V63c0-0.6-0.4-1-1-1H77v5.6c0,0.3,0.1,0.5,0.3,0.7l1.4,1.4
				c0.2,0.2,0.3,0.4,0.3,0.7V74c0,0.6-0.4,1-1,1h-0.3c-0.4,0-0.8,0.3-0.9,0.7L76,78z"/>
			<g>
				<path class="st0" d="M80.3,69.7c0-2.1,1.2-3.4,2.9-3.4c1.7,0,2.9,1.2,2.9,3.4c0,2.1-1.2,3.4-2.9,3.4S80.3,71.8,80.3,69.7z
					 M84.9,69.7c0-1.5-0.7-2.3-1.7-2.3s-1.7,0.9-1.7,2.3c0,1.5,0.7,2.4,1.7,2.4C84.2,72.1,84.9,71.2,84.9,69.7z"/>
				<path class="st0" d="M87.3,66.5h2.1c1.3,0,2.3,0.4,2.3,1.6c0,0.6-0.3,1.2-1.1,1.4l0,0c0.9,0.2,1.5,0.7,1.5,1.5
					c0,1.3-1.1,1.9-2.5,1.9h-2.3V66.5z M89.3,69.2c0.9,0,1.3-0.3,1.3-1c0-0.6-0.4-0.8-1.3-0.8h-0.8v1.8H89.3z M89.5,72.1
					c1,0,1.5-0.4,1.5-1.1s-0.5-1-1.5-1h-1v2.1H89.5z"/>
				<path class="st0" d="M95.9,66.3c0.8,0,1.4,0.4,1.9,0.8l-0.6,0.7c-0.3-0.3-0.7-0.5-1.2-0.5c-1.1,0-1.8,0.9-1.8,2.4
					s0.7,2.4,1.8,2.4c0.6,0,1-0.2,1.4-0.6l0.6,0.7c-0.5,0.6-1.2,0.9-2,0.9c-1.7,0-3-1.2-3-3.4C92.9,67.6,94.3,66.3,95.9,66.3z"/>
			</g>
		</g>
		<g>
			<g>
				<path class="st0" d="M71,62c-0.1,0-0.2,0-0.4-0.1L66,60.1L61.4,62c-0.5,0.2-1.1,0-1.3-0.6s0-1.1,0.6-1.3l5-2
					c0.2-0.1,0.5-0.1,0.7,0l5,2c0.5,0.2,0.8,0.8,0.6,1.3C71.8,61.8,71.4,62,71,62z"/>
			</g>
			<g>
				<path class="st0" d="M71,66c-0.1,0-0.2,0-0.4-0.1L66,64.1L61.4,66c-0.5,0.2-1.1,0-1.3-0.6s0-1.1,0.6-1.3l5-2
					c0.2-0.1,0.5-0.1,0.7,0l5,2c0.5,0.2,0.8,0.8,0.6,1.3C71.8,65.8,71.4,66,71,66z"/>
			</g>
			<g>
				<path class="st0" d="M71,70c-0.1,0-0.2,0-0.4-0.1L66,68.1L61.4,70c-0.5,0.2-1.1,0-1.3-0.6s0-1.1,0.6-1.3l5-2
					c0.2-0.1,0.5-0.1,0.7,0l5,2c0.5,0.2,0.8,0.8,0.6,1.3C71.8,69.8,71.4,70,71,70z"/>
			</g>
			<path class="st1" d="M77.4,70.1L76,69.4V63c0-0.3-0.1-0.5-0.3-0.7l-1-1c-0.4-0.4-1-0.4-1.4,0s-0.4,1,0,1.4l0.7,0.7V70
				c0,0.4,0.2,0.7,0.6,0.9l1.4,0.7V72H56v-0.4l1.4-0.7c0.3-0.2,0.6-0.5,0.6-0.9v-6.6l0.7-0.7c0.4-0.4,0.4-1,0-1.4s-1-0.4-1.4,0l-1,1
				C56.1,62.5,56,62.7,56,63v6.4l-1.4,0.7C54.2,70.3,54,70.6,54,71v2c0,0.6,0.4,1,1,1h1.1c0.5,4.7,4.5,8,9.9,8s9.4-3.3,9.9-8H77
				c0.6,0,1-0.4,1-1v-2C78,70.6,77.8,70.3,77.4,70.1z M66,80c-4.3,0-7.4-2.4-7.9-6h15.8C73.4,77.6,70.3,80,66,80z"/>
		</g>
	</g>
	<g id="OBC">
		<g>
			<g>
				<path class="st0" d="M28.3,69.7c0-2.1,1.2-3.4,2.9-3.4s2.9,1.2,2.9,3.4c0,2.1-1.2,3.4-2.9,3.4S28.3,71.8,28.3,69.7z M32.9,69.7
					c0-1.5-0.7-2.3-1.7-2.3s-1.7,0.9-1.7,2.3c0,1.5,0.7,2.4,1.7,2.4S32.9,71.2,32.9,69.7z"/>
				<path class="st0" d="M35.3,66.5h2.1c1.3,0,2.3,0.4,2.3,1.6c0,0.6-0.3,1.2-1.1,1.4l0,0c0.9,0.2,1.5,0.7,1.5,1.5
					c0,1.3-1.1,1.9-2.5,1.9h-2.3V66.5z M37.3,69.2c0.9,0,1.3-0.3,1.3-1c0-0.6-0.4-0.8-1.3-0.8h-0.8v1.8H37.3z M37.5,72.1
					c1,0,1.5-0.4,1.5-1.1s-0.5-1-1.5-1h-1v2.1H37.5z"/>
				<path class="st0" d="M43.9,66.3c0.8,0,1.4,0.4,1.9,0.8l-0.6,0.7c-0.3-0.3-0.7-0.5-1.2-0.5c-1.1,0-1.8,0.9-1.8,2.4
					s0.7,2.4,1.8,2.4c0.6,0,1-0.2,1.4-0.6l0.6,0.7c-0.5,0.6-1.2,0.9-2,0.9c-1.7,0-3-1.2-3-3.4C40.9,67.6,42.3,66.3,43.9,66.3z"/>
			</g>
			<g>
				<path class="st1" d="M49,78H27c-0.6,0-1-0.4-1-1s0.4-1,1-1h21V64H27c-0.6,0-1-0.4-1-1s0.4-1,1-1h22c0.6,0,1,0.4,1,1v14
					C50,77.6,49.6,78,49,78z"/>
			</g>
		</g>
		<g>
			<g>
				<path class="st0" d="M19,62c-0.1,0-0.2,0-0.4-0.1L14,60.1L9.4,62c-0.5,0.2-1.1,0-1.3-0.6s0-1.1,0.6-1.3l5-2
					c0.2-0.1,0.5-0.1,0.7,0l5,2c0.5,0.2,0.8,0.8,0.6,1.3C19.8,61.8,19.4,62,19,62z"/>
			</g>
			<g>
				<path class="st0" d="M19,66c-0.1,0-0.2,0-0.4-0.1L14,64.1L9.4,66c-0.5,0.2-1.1,0-1.3-0.6s0-1.1,0.6-1.3l5-2
					c0.2-0.1,0.5-0.1,0.7,0l5,2c0.5,0.2,0.8,0.8,0.6,1.3C19.8,65.8,19.4,66,19,66z"/>
			</g>
			<g>
				<path class="st0" d="M19,70c-0.1,0-0.2,0-0.4-0.1L14,68.1L9.4,70c-0.5,0.2-1.1,0-1.3-0.6s0-1.1,0.6-1.3l5-2
					c0.2-0.1,0.5-0.1,0.7,0l5,2c0.5,0.2,0.8,0.8,0.6,1.3C19.8,69.8,19.4,70,19,70z"/>
			</g>
			<path class="st1" d="M25.4,70.1L24,69.4V63c0-0.3-0.1-0.5-0.3-0.7l-1-1c-0.4-0.4-1-0.4-1.4,0s-0.4,1,0,1.4l0.7,0.7V70
				c0,0.4,0.2,0.7,0.6,0.9l1.4,0.7V72H4v-0.4l1.4-0.7C5.8,70.7,6,70.4,6,70v-6.6l0.7-0.7c0.4-0.4,0.4-1,0-1.4s-1-0.4-1.4,0l-1,1
				C4.1,62.5,4,62.7,4,63v6.4l-1.4,0.7C2.2,70.3,2,70.6,2,71v2c0,0.6,0.4,1,1,1h1.1c0.5,4.7,4.5,8,9.9,8s9.4-3.3,9.9-8H25
				c0.6,0,1-0.4,1-1v-2C26,70.6,25.8,70.3,25.4,70.1z M14,80c-4.3,0-7.4-2.4-7.9-6h15.8C21.4,77.6,18.3,80,14,80z"/>
		</g>
	</g>
	<g id="TBC-on">
		<g>
			<path class="st2" d="M76,50h25c0.6,0,1-0.4,1-1V35c0-0.6-0.4-1-1-1H77v5.6c0,0.3,0.1,0.5,0.3,0.7l1.4,1.4
				c0.2,0.2,0.3,0.4,0.3,0.7V46c0,0.6-0.4,1-1,1h-0.3c-0.4,0-0.8,0.3-0.9,0.7L76,50z"/>
			<g>
				<path class="st4" d="M82.6,39.4h-1.9v-1h4.9v1h-1.9V45h-1.2L82.6,39.4L82.6,39.4z"/>
				<path class="st4" d="M86.7,38.5h2.1c1.3,0,2.3,0.4,2.3,1.6c0,0.6-0.3,1.2-1.1,1.4l0,0c0.9,0.2,1.5,0.7,1.5,1.5
					c0,1.3-1.1,1.9-2.5,1.9h-2.3V38.5z M88.7,41.2c0.9,0,1.3-0.3,1.3-1c0-0.6-0.4-0.8-1.3-0.8h-0.8v1.8H88.7z M88.8,44.1
					c1,0,1.5-0.4,1.5-1.1c0-0.7-0.5-1-1.5-1h-1v2.1H88.8z"/>
				<path class="st4" d="M95.3,38.3c0.8,0,1.4,0.4,1.9,0.8l-0.6,0.7c-0.3-0.3-0.7-0.5-1.2-0.5c-1.1,0-1.8,0.9-1.8,2.4
					s0.7,2.4,1.8,2.4c0.6,0,1-0.2,1.4-0.6l0.6,0.7c-0.5,0.6-1.2,0.9-2,0.9c-1.7,0-3-1.2-3-3.4C92.3,39.6,93.6,38.3,95.3,38.3z"/>
			</g>
		</g>
		<g>
			<g>
				<path class="st2" d="M71,34c-0.1,0-0.2,0-0.4-0.1L66,32.1L61.4,34c-0.5,0.2-1.1,0-1.3-0.6c-0.2-0.5,0-1.1,0.6-1.3l5-2
					c0.2-0.1,0.5-0.1,0.7,0l5,2c0.5,0.2,0.8,0.8,0.6,1.3C71.8,33.8,71.4,34,71,34z"/>
			</g>
			<g>
				<path class="st2" d="M71,38c-0.1,0-0.2,0-0.4-0.1L66,36.1L61.4,38c-0.5,0.2-1.1,0-1.3-0.6c-0.2-0.5,0-1.1,0.6-1.3l5-2
					c0.2-0.1,0.5-0.1,0.7,0l5,2c0.5,0.2,0.8,0.8,0.6,1.3C71.8,37.8,71.4,38,71,38z"/>
			</g>
			<path class="st2" d="M77.4,42.1L76,41.4V35c0-0.3-0.1-0.5-0.3-0.7l-1-1c-0.4-0.4-1-0.4-1.4,0s-0.4,1,0,1.4l0.7,0.7V42
				c0,0.4,0.2,0.7,0.6,0.9l1.4,0.7V44H56v-0.4l1.4-0.7c0.3-0.2,0.6-0.5,0.6-0.9v-6.6l0.7-0.7c0.4-0.4,0.4-1,0-1.4s-1-0.4-1.4,0l-1,1
				C56.1,34.5,56,34.7,56,35v6.4l-1.4,0.7C54.2,42.3,54,42.6,54,43v2c0,0.6,0.4,1,1,1h1.1c0.5,4.7,4.5,8,9.9,8s9.4-3.3,9.9-8H77
				c0.6,0,1-0.4,1-1v-2C78,42.6,77.8,42.3,77.4,42.1z M66,52c-4.3,0-7.4-2.4-7.9-6h15.8C73.4,49.6,70.3,52,66,52z"/>
		</g>
	</g>
	<g id="TBC">
		<g>
			<g>
				<path class="st2" d="M30.6,39.4h-1.9v-1h4.9v1h-1.9V45h-1.2L30.6,39.4L30.6,39.4z"/>
				<path class="st2" d="M34.7,38.5h2.1c1.3,0,2.3,0.4,2.3,1.6c0,0.6-0.3,1.2-1.1,1.4l0,0c0.9,0.2,1.5,0.7,1.5,1.5
					c0,1.3-1.1,1.9-2.5,1.9h-2.3V38.5z M36.7,41.2c0.9,0,1.3-0.3,1.3-1c0-0.6-0.4-0.8-1.3-0.8h-0.8v1.8H36.7z M36.8,44.1
					c1,0,1.5-0.4,1.5-1.1c0-0.7-0.5-1-1.5-1h-1v2.1H36.8z"/>
				<path class="st2" d="M43.3,38.3c0.8,0,1.4,0.4,1.9,0.8l-0.6,0.7c-0.3-0.3-0.7-0.5-1.2-0.5c-1.1,0-1.8,0.9-1.8,2.4
					s0.7,2.4,1.8,2.4c0.6,0,1-0.2,1.4-0.6l0.6,0.7c-0.5,0.6-1.2,0.9-2,0.9c-1.7,0-3-1.2-3-3.4C40.3,39.6,41.6,38.3,43.3,38.3z"/>
			</g>
			<g>
				<path class="st2" d="M49,50H27c-0.6,0-1-0.4-1-1s0.4-1,1-1h21V36H27c-0.6,0-1-0.4-1-1s0.4-1,1-1h22c0.6,0,1,0.4,1,1v14
					C50,49.6,49.6,50,49,50z"/>
			</g>
		</g>
		<g>
			<g>
				<path class="st2" d="M19,34c-0.1,0-0.2,0-0.4-0.1L14,32.1L9.4,34c-0.5,0.2-1.1,0-1.3-0.6c-0.2-0.5,0-1.1,0.6-1.3l5-2
					c0.2-0.1,0.5-0.1,0.7,0l5,2c0.5,0.2,0.8,0.8,0.6,1.3C19.8,33.8,19.4,34,19,34z"/>
			</g>
			<g>
				<path class="st2" d="M19,38c-0.1,0-0.2,0-0.4-0.1L14,36.1L9.4,38c-0.5,0.2-1.1,0-1.3-0.6c-0.2-0.5,0-1.1,0.6-1.3l5-2
					c0.2-0.1,0.5-0.1,0.7,0l5,2c0.5,0.2,0.8,0.8,0.6,1.3C19.8,37.8,19.4,38,19,38z"/>
			</g>
			<path class="st2" d="M25.4,42.1L24,41.4V35c0-0.3-0.1-0.5-0.3-0.7l-1-1c-0.4-0.4-1-0.4-1.4,0s-0.4,1,0,1.4l0.7,0.7V42
				c0,0.4,0.2,0.7,0.6,0.9l1.4,0.7V44H4v-0.4l1.4-0.7C5.8,42.7,6,42.4,6,42v-6.6l0.7-0.7c0.4-0.4,0.4-1,0-1.4s-1-0.4-1.4,0l-1,1
				C4.1,34.5,4,34.7,4,35v6.4l-1.4,0.7C2.2,42.3,2,42.6,2,43v2c0,0.6,0.4,1,1,1h1.1c0.5,4.7,4.5,8,9.9,8s9.4-3.3,9.9-8H25
				c0.6,0,1-0.4,1-1v-2C26,42.6,25.8,42.3,25.4,42.1z M14,52c-4.3,0-7.4-2.4-7.9-6h15.8C21.4,49.6,18.3,52,14,52z"/>
		</g>
	</g>
	<g id="BC-on">
		<g>
			<path class="st3" d="M76,22h25c0.6,0,1-0.4,1-1V7c0-0.6-0.4-1-1-1H77v5.6c0,0.3,0.1,0.5,0.3,0.7l1.4,1.4c0.2,0.2,0.3,0.4,0.3,0.7
				V18c0,0.6-0.4,1-1,1h-0.3c-0.4,0-0.8,0.3-0.9,0.7L76,22z"/>
			<g>
				<path class="st4" d="M84,10.5h2.1c1.3,0,2.3,0.4,2.3,1.6c0,0.6-0.3,1.2-1.1,1.4l0,0c0.9,0.2,1.5,0.7,1.5,1.5
					c0,1.3-1.1,1.9-2.5,1.9H84V10.5z M86,13.2c0.9,0,1.3-0.3,1.3-1c0-0.6-0.4-0.8-1.3-0.8h-0.8v1.8H86z M86.1,16.1
					c1,0,1.5-0.4,1.5-1.1c0-0.7-0.5-1-1.5-1h-1v2.1H86.1z"/>
				<path class="st4" d="M92.6,10.3c0.8,0,1.4,0.4,1.9,0.8l-0.6,0.7c-0.3-0.3-0.7-0.5-1.2-0.5c-1.1,0-1.8,0.9-1.8,2.4
					s0.7,2.4,1.8,2.4c0.6,0,1-0.2,1.4-0.6l0.6,0.7c-0.5,0.6-1.2,0.9-2,0.9c-1.7,0-3-1.2-3-3.4C89.6,11.6,90.9,10.3,92.6,10.3z"/>
			</g>
		</g>
		<g>
			<g>
				<path class="st3" d="M71,6c-0.1,0-0.2,0-0.4-0.1L66,4.1L61.4,6c-0.5,0.2-1.1,0-1.3-0.6s0-1.1,0.6-1.3l5-2c0.2-0.1,0.5-0.1,0.7,0
					l5,2c0.5,0.2,0.8,0.8,0.6,1.3C71.8,5.8,71.4,6,71,6z"/>
			</g>
			<path class="st3" d="M77.4,14.1L76,13.4V7c0-0.3-0.1-0.5-0.3-0.7l-1-1c-0.4-0.4-1-0.4-1.4,0s-0.4,1,0,1.4L74,7.4V14
				c0,0.4,0.2,0.7,0.6,0.9l1.4,0.7V16H56v-0.4l1.4-0.7c0.3-0.2,0.6-0.5,0.6-0.9V7.4l0.7-0.7c0.4-0.4,0.4-1,0-1.4s-1-0.4-1.4,0l-1,1
				C56.1,6.5,56,6.7,56,7v6.4l-1.4,0.7C54.2,14.3,54,14.6,54,15v2c0,0.6,0.4,1,1,1h1.1c0.5,4.7,4.5,8,9.9,8s9.4-3.3,9.9-8H77
				c0.6,0,1-0.4,1-1v-2C78,14.6,77.8,14.3,77.4,14.1z M66,24c-4.3,0-7.4-2.4-7.9-6h15.8C73.4,21.6,70.3,24,66,24z"/>
		</g>
	</g>
	<g id="BC_1_">
		<g>
			<g>
				<path class="st3" d="M32,10.5h2.1c1.3,0,2.3,0.4,2.3,1.6c0,0.6-0.3,1.2-1.1,1.4l0,0c0.9,0.2,1.5,0.7,1.5,1.5
					c0,1.3-1.1,1.9-2.5,1.9H32V10.5z M34,13.2c0.9,0,1.3-0.3,1.3-1c0-0.6-0.4-0.8-1.3-0.8h-0.8v1.8H34z M34.1,16.1
					c1,0,1.5-0.4,1.5-1.1c0-0.7-0.5-1-1.5-1h-1v2.1H34.1z"/>
				<path class="st3" d="M40.6,10.3c0.8,0,1.4,0.4,1.9,0.8l-0.6,0.7c-0.3-0.3-0.7-0.5-1.2-0.5c-1.1,0-1.8,0.9-1.8,2.4
					s0.7,2.4,1.8,2.4c0.6,0,1-0.2,1.4-0.6l0.6,0.7c-0.5,0.6-1.2,0.9-2,0.9c-1.7,0-3-1.2-3-3.4C37.6,11.6,38.9,10.3,40.6,10.3z"/>
			</g>
			<g>
				<path class="st3" d="M49,22H27c-0.6,0-1-0.4-1-1s0.4-1,1-1h21V8H27c-0.6,0-1-0.4-1-1s0.4-1,1-1h22c0.6,0,1,0.4,1,1v14
					C50,21.6,49.6,22,49,22z"/>
			</g>
		</g>
		<g>
			<g>
				<path class="st3" d="M19,6c-0.1,0-0.2,0-0.4-0.1L14,4.1L9.4,5.9c-0.5,0.2-1.1,0-1.3-0.6s0-1.1,0.6-1.3l5-2
					c0.2-0.1,0.5-0.1,0.7,0l5,2c0.5,0.2,0.8,0.8,0.6,1.3C19.8,5.8,19.4,6,19,6z"/>
			</g>
			<path class="st3" d="M25.4,14.1L24,13.4V7c0-0.3-0.1-0.5-0.3-0.7l-1-1c-0.4-0.4-1-0.4-1.4,0s-0.4,1,0,1.4L22,7.4V14
				c0,0.4,0.2,0.7,0.6,0.9l1.4,0.7V16H4v-0.4l1.4-0.7C5.8,14.7,6,14.4,6,14V7.4l0.7-0.7c0.4-0.4,0.4-1,0-1.4s-1-0.4-1.4,0l-1,1
				C4.1,6.5,4,6.7,4,7v6.4l-1.4,0.7C2.2,14.3,2,14.6,2,15v2c0,0.6,0.4,1,1,1h1.1c0.5,4.7,4.5,8,9.9,8s9.4-3.3,9.9-8H25
				c0.6,0,1-0.4,1-1v-2C26,14.6,25.8,14.3,25.4,14.1z M14,24c-4.3,0-7.4-2.4-7.9-6h15.8C21.4,21.6,18.3,24,14,24z"/>
		</g>
	</g>
</g>
<g id="brand">
</g>
<g id="generic">
</g>
<g id="negative">
</g>
<g id="creation">
</g>
<g id="games">
</g>
<g id="Social_and_Interaction">
</g>
</svg>
