<?xml version="1.0" encoding="utf-8"?>
<!-- Generator: Adobe Illustrator 21.1.0, SVG Export Plug-In . SVG Version: 6.00 Build 0)  -->
<!DOCTYPE svg PUBLIC "-//W3C//DTD SVG 1.1//EN" "http://www.w3.org/Graphics/SVG/1.1/DTD/svg11.dtd">
<svg version="1.1" id="Layer_1" xmlns="http://www.w3.org/2000/svg" xmlns:xlink="http://www.w3.org/1999/xlink" x="0px" y="0px"
	 width="90px" height="450px" viewBox="0 0 90 450" style="enable-background:new 0 0 90 450;" xml:space="preserve" preserveAspectRatio="none">
<style type="text/css">
	.st0{fill:#F2F2F2;}
	.st1{fill:none;stroke:#B8B8B8;stroke-width:1.9664;stroke-linecap:round;stroke-linejoin:round;stroke-miterlimit:10;}
	.st2{fill:none;stroke:#B8B8B8;stroke-width:2.75;stroke-linecap:round;stroke-linejoin:round;stroke-miterlimit:10;}
	.st3{fill:none;stroke:#B8B8B8;stroke-width:2.25;stroke-linecap:round;stroke-linejoin:round;stroke-miterlimit:10;}
	.st4{fill:none;stroke:#B8B8B8;stroke-width:2;stroke-linecap:round;stroke-linejoin:round;stroke-miterlimit:10;}
	.st5{fill:#B8B8B8;}
	.st6{font-family:'SourceSansPro-Semibold';}
	.st7{font-size:15px;}
	.st8{fill:none;stroke:#B8B8B8;stroke-width:1.5;stroke-linecap:round;stroke-linejoin:round;stroke-miterlimit:10;}
</style>
<g id="unknown_1_">
	<rect id="bg_4_" y="360" class="st0" width="90" height="90"/>
	<g id="unknown">
		<polyline class="st1" points="56.5,390.6 62.3,391.1 59.3,426 34.4,423.8 		"/>
		
			<rect x="29.2" y="385" transform="matrix(0.9962 -8.715574e-02 8.715574e-02 0.9962 -34.9234 5.1635)" class="st1" width="25" height="35"/>
		<g>
			<line class="st2" x1="42.7" y1="412.5" x2="42.7" y2="412.5"/>
			<path class="st3" d="M35.6,398.8c-0.3-3.2,2.1-6,5.3-6.3c3.2-0.3,6,2.1,6.3,5.3c0.4,5-5.4,5.2-5,10.2"/>
		</g>
	</g>
</g>
<g id="unavailable_1_">
	<rect id="bg_3_" y="270" class="st0" width="90" height="90"/>
	<g id="unavailable">
		<polyline class="st4" points="32.5,293.5 28.5,293.5 28.5,297.5 		"/>
		<polyline class="st4" points="28.5,332.5 28.5,336.5 32.5,336.5 		"/>
		<line class="st4" x1="28.5" y1="301.8" x2="28.5" y2="307.8"/>
		<line class="st4" x1="28.5" y1="312" x2="28.5" y2="318"/>
		<line class="st4" x1="28.5" y1="322.2" x2="28.5" y2="328.2"/>
		<polyline class="st4" points="57.5,336.5 61.5,336.5 61.5,332.5 		"/>
		<line class="st4" x1="61.5" y1="328.2" x2="61.5" y2="322.2"/>
		<line class="st4" x1="61.5" y1="318" x2="61.5" y2="312"/>
		<line class="st4" x1="61.5" y1="307.8" x2="61.5" y2="303.8"/>
		<line class="st4" x1="36.8" y1="336.5" x2="42.8" y2="336.5"/>
		<line class="st4" x1="47.2" y1="336.5" x2="53.2" y2="336.5"/>
		<line class="st4" x1="36.8" y1="293.5" x2="42.8" y2="293.5"/>
		<line class="st4" x1="47.2" y1="293.5" x2="51.2" y2="293.5"/>
		<line class="st4" x1="51.4" y1="293.6" x2="54.9" y2="297.1"/>
		<line class="st4" x1="57.9" y1="300.1" x2="61.4" y2="303.6"/>
		<line class="st4" x1="51.2" y1="293.8" x2="51.2" y2="296.8"/>
		<line class="st4" x1="58.5" y1="303.8" x2="61.5" y2="303.8"/>
		<polyline class="st4" points="51.2,300.2 51.2,303.8 54.8,303.8 		"/>
		<text transform="matrix(1 0 0 1 33.5 321.417)" class="st5 st6 st7">N</text>
		<text transform="matrix(1 0 0 1 48.0498 321.417)" class="st5 st6 st7">A</text>
		<line class="st8" x1="47.2" y1="312.3" x2="44.4" y2="320.7"/>
	</g>
</g>
<g id="unapproved_1_">
	<rect id="bg_2_" y="180" class="st0" width="90" height="90"/>
	<g id="unapproved">
		<circle class="st4" cx="45" cy="228.8" r="10"/>
		<line class="st4" x1="38" y1="221.7" x2="52" y2="235.8"/>
		<polyline class="st4" points="32.5,203.5 28.5,203.5 28.5,207.5 		"/>
		<polyline class="st4" points="28.5,242.5 28.5,246.5 32.5,246.5 		"/>
		<line class="st4" x1="28.5" y1="211.8" x2="28.5" y2="217.8"/>
		<line class="st4" x1="28.5" y1="222" x2="28.5" y2="228"/>
		<line class="st4" x1="28.5" y1="232.2" x2="28.5" y2="238.2"/>
		<polyline class="st4" points="57.5,246.5 61.5,246.5 61.5,242.5 		"/>
		<line class="st4" x1="61.5" y1="238.2" x2="61.5" y2="232.2"/>
		<line class="st4" x1="61.5" y1="228" x2="61.5" y2="222"/>
		<line class="st4" x1="61.5" y1="217.8" x2="61.5" y2="213.8"/>
		<line class="st4" x1="36.8" y1="246.5" x2="42.8" y2="246.5"/>
		<line class="st4" x1="47.2" y1="246.5" x2="53.2" y2="246.5"/>
		<line class="st4" x1="36.8" y1="203.5" x2="42.8" y2="203.5"/>
		<line class="st4" x1="47.2" y1="203.5" x2="51.2" y2="203.5"/>
		<line class="st4" x1="51.4" y1="203.6" x2="54.9" y2="207.1"/>
		<line class="st4" x1="57.9" y1="210.1" x2="61.4" y2="213.6"/>
		<line class="st4" x1="51.2" y1="203.8" x2="51.2" y2="206.8"/>
		<line class="st4" x1="58.5" y1="213.8" x2="61.5" y2="213.8"/>
		<polyline class="st4" points="51.2,210.2 51.2,213.8 54.8,213.8 		"/>
	</g>
</g>
<g id="review_pending_1_">
	<rect id="bg_1_" y="90" class="st0" width="90" height="90"/>
	<g id="review_pending">
		<polyline class="st4" points="51.9,151.5 28.6,151.5 28.6,113.5 61.1,113.5 61.1,131.5 		"/>
		<polygon class="st4" points="66.4,142.9 66.4,135.5 55.9,135.5 55.9,142.9 58.5,146 55.9,149 55.9,156.5 66.4,156.5 66.4,149 
			63.8,146 		"/>
		<line class="st4" x1="42.4" y1="121.5" x2="55.6" y2="121.5"/>
		<line class="st4" x1="42.4" y1="131.5" x2="55.6" y2="131.5"/>
		<line class="st4" x1="42.4" y1="141.5" x2="51.9" y2="141.5"/>
		<polyline class="st4" points="33.9,121 35.4,122.5 38.4,119.5 		"/>
		<g>
			<polygon class="st5" points="63.4,142.8 58.9,142.8 61.1,145.2 63.4,142.8 			"/>
		</g>
		<g>
			<polygon class="st5" points="61.1,150.2 57.9,152.2 57.9,154.5 64.4,154.5 64.4,152.2 61.1,150.2 			"/>
		</g>
		<rect x="33.9" y="129.2" class="st4" width="4.5" height="4.5"/>
		<rect x="33.9" y="139.2" class="st4" width="4.5" height="4.5"/>
	</g>
</g>
<g id="borken">
	<rect id="bg" class="st0" width="90" height="90"/>
	<g id="broken">
		<polyline class="st4" points="51.2,23.5 51.2,33.8 61.5,33.8 		"/>
		<g>
			<polygon class="st4" points="28.5,48.9 28.5,66.5 61.5,66.5 61.5,53.8 50.5,48.8 39.5,53.8 28.5,48.8 			"/>
			<polygon class="st4" points="61.5,33.8 51.2,23.5 28.5,23.5 28.5,41 39.5,46 50.5,41 61.5,46 			"/>
		</g>
	</g>
</g>
</svg>
